<?xml version="1.0" encoding="utf-8"?>
<svg xmlns="http://www.w3.org/2000/svg" xmlns:xlink="http://www.w3.org/1999/xlink" width="500" height="400" viewBox="0 0 2000 1600">
<defs>
  <clipPath id="clip480">
    <rect x="0" y="0" width="2000" height="1600"/>
  </clipPath>
</defs>
<path clip-path="url(#clip480)" d="M0 1600 L2000 1600 L2000 -8.88178e-14 L0 -8.88178e-14  Z" fill="#ffffff" fill-rule="evenodd" fill-opacity="1"/>
<defs>
  <clipPath id="clip481">
    <rect x="400" y="0" width="1401" height="1401"/>
  </clipPath>
</defs>
<path clip-path="url(#clip480)" d="M255.046 1379.18 L1952.76 1379.18 L1952.76 135.568 L255.046 135.568  Z" fill="#ffffff" fill-rule="evenodd" fill-opacity="1"/>
<defs>
  <clipPath id="clip482">
    <rect x="255" y="135" width="1699" height="1245"/>
  </clipPath>
</defs>
<polyline clip-path="url(#clip482)" style="stroke:#000000; stroke-linecap:round; stroke-linejoin:round; stroke-width:2; stroke-opacity:0.1; fill:none" points="303.094,1379.18 303.094,135.568 "/>
<polyline clip-path="url(#clip482)" style="stroke:#000000; stroke-linecap:round; stroke-linejoin:round; stroke-width:2; stroke-opacity:0.1; fill:none" points="1103.9,1379.18 1103.9,135.568 "/>
<polyline clip-path="url(#clip482)" style="stroke:#000000; stroke-linecap:round; stroke-linejoin:round; stroke-width:2; stroke-opacity:0.1; fill:none" points="1904.71,1379.18 1904.71,135.568 "/>
<polyline clip-path="url(#clip482)" style="stroke:#000000; stroke-linecap:round; stroke-linejoin:round; stroke-width:2; stroke-opacity:0.1; fill:none" points="255.046,1343.98 1952.76,1343.98 "/>
<polyline clip-path="url(#clip482)" style="stroke:#000000; stroke-linecap:round; stroke-linejoin:round; stroke-width:2; stroke-opacity:0.1; fill:none" points="255.046,1050.68 1952.76,1050.68 "/>
<polyline clip-path="url(#clip482)" style="stroke:#000000; stroke-linecap:round; stroke-linejoin:round; stroke-width:2; stroke-opacity:0.1; fill:none" points="255.046,757.373 1952.76,757.373 "/>
<polyline clip-path="url(#clip482)" style="stroke:#000000; stroke-linecap:round; stroke-linejoin:round; stroke-width:2; stroke-opacity:0.1; fill:none" points="255.046,464.069 1952.76,464.069 "/>
<polyline clip-path="url(#clip482)" style="stroke:#000000; stroke-linecap:round; stroke-linejoin:round; stroke-width:2; stroke-opacity:0.1; fill:none" points="255.046,170.765 1952.76,170.765 "/>
<polyline clip-path="url(#clip480)" style="stroke:#000000; stroke-linecap:round; stroke-linejoin:round; stroke-width:4; stroke-opacity:1; fill:none" points="255.046,1379.18 1952.76,1379.18 "/>
<polyline clip-path="url(#clip480)" style="stroke:#000000; stroke-linecap:round; stroke-linejoin:round; stroke-width:4; stroke-opacity:1; fill:none" points="303.094,1379.18 303.094,1360.28 "/>
<polyline clip-path="url(#clip480)" style="stroke:#000000; stroke-linecap:round; stroke-linejoin:round; stroke-width:4; stroke-opacity:1; fill:none" points="1103.9,1379.18 1103.9,1360.28 "/>
<polyline clip-path="url(#clip480)" style="stroke:#000000; stroke-linecap:round; stroke-linejoin:round; stroke-width:4; stroke-opacity:1; fill:none" points="1904.71,1379.18 1904.71,1360.28 "/>
<path clip-path="url(#clip480)" d="M303.094 1406.9 Q299.483 1406.9 297.655 1410.46 Q295.849 1414 295.849 1421.13 Q295.849 1428.24 297.655 1431.8 Q299.483 1435.35 303.094 1435.35 Q306.729 1435.35 308.534 1431.8 Q310.363 1428.24 310.363 1421.13 Q310.363 1414 308.534 1410.46 Q306.729 1406.9 303.094 1406.9 M303.094 1403.19 Q308.905 1403.19 311.96 1407.8 Q315.039 1412.38 315.039 1421.13 Q315.039 1429.86 311.96 1434.47 Q308.905 1439.05 303.094 1439.05 Q297.284 1439.05 294.206 1434.47 Q291.15 1429.86 291.15 1421.13 Q291.15 1412.38 294.206 1407.8 Q297.284 1403.19 303.094 1403.19 Z" fill="#000000" fill-rule="nonzero" fill-opacity="1" /><path clip-path="url(#clip480)" d="M1096.08 1399.44 L1096.08 1397.94 Q1101.84 1397.94 1104.82 1394.87 Q1105.64 1394.87 1105.78 1395.06 Q1105.92 1395.25 1105.92 1396.11 L1105.92 1423.03 Q1105.92 1424.45 1106.62 1424.9 Q1107.32 1425.34 1110.39 1425.34 L1111.92 1425.34 L1111.92 1426.82 Q1110.23 1426.68 1104.14 1426.68 Q1098.05 1426.68 1096.39 1426.82 L1096.39 1425.34 L1097.91 1425.34 Q1100.93 1425.34 1101.66 1424.92 Q1102.38 1424.48 1102.38 1423.03 L1102.38 1398.17 Q1099.88 1399.44 1096.08 1399.44 Z" fill="#000000" fill-rule="nonzero" fill-opacity="1" /><path clip-path="url(#clip480)" d="M1094.42 1439.62 L1118.51 1439.62 L1118.51 1437.06 L1094.42 1437.06  Z" fill="#000000" fill-rule="evenodd" fill-opacity="1"/>
<path clip-path="url(#clip480)" d="M1094.42 1481.5 Q1094.42 1480.63 1094.49 1480.38 Q1094.58 1480.12 1094.95 1479.72 L1104.16 1469.46 Q1109.19 1463.79 1109.19 1458.85 Q1109.19 1455.64 1107.51 1453.35 Q1105.85 1451.05 1102.78 1451.05 Q1100.67 1451.05 1098.89 1452.34 Q1097.11 1453.63 1096.29 1455.92 Q1096.43 1455.88 1096.92 1455.88 Q1098.12 1455.88 1098.77 1456.63 Q1099.45 1457.37 1099.45 1458.38 Q1099.45 1459.67 1098.61 1460.3 Q1097.79 1460.91 1096.97 1460.91 Q1096.64 1460.91 1096.2 1460.84 Q1095.77 1460.77 1095.09 1460.12 Q1094.42 1459.44 1094.42 1458.24 Q1094.42 1454.89 1096.94 1452.22 Q1099.5 1449.55 1103.39 1449.55 Q1107.79 1449.55 1110.67 1452.18 Q1113.57 1454.78 1113.57 1458.85 Q1113.57 1460.28 1113.13 1461.59 Q1112.71 1462.88 1112.12 1463.89 Q1111.56 1464.89 1110.01 1466.51 Q1108.47 1468.13 1107.23 1469.27 Q1105.99 1470.42 1103.2 1472.86 L1098.12 1477.8 L1106.76 1477.8 Q1110.97 1477.8 1111.3 1477.42 Q1111.77 1476.75 1112.36 1473.16 L1113.57 1473.16 L1112.22 1481.5 L1094.42 1481.5 Z" fill="#000000" fill-rule="nonzero" fill-opacity="1" /><path clip-path="url(#clip480)" d="M1895.09 1434.44 L1902.73 1434.44 L1902.73 1408.08 L1894.42 1409.74 L1894.42 1405.49 L1902.68 1403.82 L1907.36 1403.82 L1907.36 1434.44 L1915 1434.44 L1915 1438.38 L1895.09 1438.38 L1895.09 1434.44 Z" fill="#000000" fill-rule="nonzero" fill-opacity="1" /><path clip-path="url(#clip480)" d="M794.4 1505 L824.446 1505 L824.446 1510.41 L800.83 1510.41 L800.83 1524.48 L823.46 1524.48 L823.46 1529.89 L800.83 1529.89 L800.83 1547.11 L825.019 1547.11 L825.019 1552.52 L794.4 1552.52 L794.4 1505 Z" fill="#000000" fill-rule="nonzero" fill-opacity="1" /><path clip-path="url(#clip480)" d="M855.989 1522.35 Q855.002 1521.78 853.824 1521.52 Q852.678 1521.24 851.278 1521.24 Q846.313 1521.24 843.639 1524.48 Q840.997 1527.7 840.997 1533.75 L840.997 1552.52 L835.109 1552.52 L835.109 1516.88 L840.997 1516.88 L840.997 1522.41 Q842.843 1519.17 845.803 1517.61 Q848.763 1516.02 852.997 1516.02 Q853.601 1516.02 854.333 1516.11 Q855.065 1516.18 855.957 1516.34 L855.989 1522.35 Z" fill="#000000" fill-rule="nonzero" fill-opacity="1" /><path clip-path="url(#clip480)" d="M881.642 1522.35 Q880.656 1521.78 879.478 1521.52 Q878.332 1521.24 876.932 1521.24 Q871.966 1521.24 869.293 1524.48 Q866.651 1527.7 866.651 1533.75 L866.651 1552.52 L860.763 1552.52 L860.763 1516.88 L866.651 1516.88 L866.651 1522.41 Q868.497 1519.17 871.457 1517.61 Q874.417 1516.02 878.65 1516.02 Q879.255 1516.02 879.987 1516.11 Q880.719 1516.18 881.61 1516.34 L881.642 1522.35 Z" fill="#000000" fill-rule="nonzero" fill-opacity="1" /><path clip-path="url(#clip480)" d="M900.167 1520.98 Q895.456 1520.98 892.719 1524.67 Q889.981 1528.33 889.981 1534.73 Q889.981 1541.13 892.687 1544.82 Q895.424 1548.48 900.167 1548.48 Q904.845 1548.48 907.583 1544.79 Q910.32 1541.1 910.32 1534.73 Q910.32 1528.4 907.583 1524.71 Q904.845 1520.98 900.167 1520.98 M900.167 1516.02 Q907.805 1516.02 912.166 1520.98 Q916.526 1525.95 916.526 1534.73 Q916.526 1543.48 912.166 1548.48 Q907.805 1553.45 900.167 1553.45 Q892.496 1553.45 888.135 1548.48 Q883.807 1543.48 883.807 1534.73 Q883.807 1525.95 888.135 1520.98 Q892.496 1516.02 900.167 1516.02 Z" fill="#000000" fill-rule="nonzero" fill-opacity="1" /><path clip-path="url(#clip480)" d="M946.891 1522.35 Q945.904 1521.78 944.726 1521.52 Q943.581 1521.24 942.18 1521.24 Q937.215 1521.24 934.541 1524.48 Q931.9 1527.7 931.9 1533.75 L931.9 1552.52 L926.011 1552.52 L926.011 1516.88 L931.9 1516.88 L931.9 1522.41 Q933.746 1519.17 936.706 1517.61 Q939.666 1516.02 943.899 1516.02 Q944.504 1516.02 945.236 1516.11 Q945.968 1516.18 946.859 1516.34 L946.891 1522.35 Z" fill="#000000" fill-rule="nonzero" fill-opacity="1" /><path clip-path="url(#clip480)" d="M980.438 1510.29 L980.438 1528.14 L988.523 1528.14 Q993.01 1528.14 995.461 1525.82 Q997.912 1523.5 997.912 1519.2 Q997.912 1514.93 995.461 1512.61 Q993.01 1510.29 988.523 1510.29 L980.438 1510.29 M974.009 1505 L988.523 1505 Q996.511 1505 1000.59 1508.63 Q1004.69 1512.23 1004.69 1519.2 Q1004.69 1526.23 1000.59 1529.83 Q996.511 1533.43 988.523 1533.43 L980.438 1533.43 L980.438 1552.52 L974.009 1552.52 L974.009 1505 Z" fill="#000000" fill-rule="nonzero" fill-opacity="1" /><path clip-path="url(#clip480)" d="M1032.57 1522.35 Q1031.59 1521.78 1030.41 1521.52 Q1029.26 1521.24 1027.86 1521.24 Q1022.9 1521.24 1020.22 1524.48 Q1017.58 1527.7 1017.58 1533.75 L1017.58 1552.52 L1011.69 1552.52 L1011.69 1516.88 L1017.58 1516.88 L1017.58 1522.41 Q1019.43 1519.17 1022.39 1517.61 Q1025.35 1516.02 1029.58 1516.02 Q1030.19 1516.02 1030.92 1516.11 Q1031.65 1516.18 1032.54 1516.34 L1032.57 1522.35 Z" fill="#000000" fill-rule="nonzero" fill-opacity="1" /><path clip-path="url(#clip480)" d="M1051.1 1520.98 Q1046.39 1520.98 1043.65 1524.67 Q1040.91 1528.33 1040.91 1534.73 Q1040.91 1541.13 1043.62 1544.82 Q1046.35 1548.48 1051.1 1548.48 Q1055.78 1548.48 1058.51 1544.79 Q1061.25 1541.1 1061.25 1534.73 Q1061.25 1528.4 1058.51 1524.71 Q1055.78 1520.98 1051.1 1520.98 M1051.1 1516.02 Q1058.74 1516.02 1063.1 1520.98 Q1067.46 1525.95 1067.46 1534.73 Q1067.46 1543.48 1063.1 1548.48 Q1058.74 1553.45 1051.1 1553.45 Q1043.43 1553.45 1039.07 1548.48 Q1034.74 1543.48 1034.74 1534.73 Q1034.74 1525.95 1039.07 1520.98 Q1043.43 1516.02 1051.1 1516.02 Z" fill="#000000" fill-rule="nonzero" fill-opacity="1" /><path clip-path="url(#clip480)" d="M1102.76 1534.73 Q1102.76 1528.27 1100.08 1524.61 Q1097.44 1520.92 1092.79 1520.92 Q1088.15 1520.92 1085.47 1524.61 Q1082.83 1528.27 1082.83 1534.73 Q1082.83 1541.19 1085.47 1544.89 Q1088.15 1548.55 1092.79 1548.55 Q1097.44 1548.55 1100.08 1544.89 Q1102.76 1541.19 1102.76 1534.73 M1082.83 1522.29 Q1084.68 1519.1 1087.48 1517.58 Q1090.31 1516.02 1094.23 1516.02 Q1100.72 1516.02 1104.76 1521.17 Q1108.83 1526.33 1108.83 1534.73 Q1108.83 1543.13 1104.76 1548.29 Q1100.72 1553.45 1094.23 1553.45 Q1090.31 1553.45 1087.48 1551.92 Q1084.68 1550.36 1082.83 1547.18 L1082.83 1552.52 L1076.94 1552.52 L1076.94 1503 L1082.83 1503 L1082.83 1522.29 Z" fill="#000000" fill-rule="nonzero" fill-opacity="1" /><path clip-path="url(#clip480)" d="M1134.74 1534.6 Q1127.65 1534.6 1124.91 1536.23 Q1122.17 1537.85 1122.17 1541.77 Q1122.17 1544.89 1124.21 1546.73 Q1126.28 1548.55 1129.81 1548.55 Q1134.68 1548.55 1137.61 1545.11 Q1140.57 1541.64 1140.57 1535.91 L1140.57 1534.6 L1134.74 1534.6 M1146.42 1532.19 L1146.42 1552.52 L1140.57 1552.52 L1140.57 1547.11 Q1138.56 1550.36 1135.57 1551.92 Q1132.58 1553.45 1128.25 1553.45 Q1122.78 1553.45 1119.53 1550.39 Q1116.31 1547.3 1116.31 1542.15 Q1116.31 1536.13 1120.32 1533.08 Q1124.37 1530.02 1132.36 1530.02 L1140.57 1530.02 L1140.57 1529.45 Q1140.57 1525.41 1137.89 1523.21 Q1135.25 1520.98 1130.45 1520.98 Q1127.39 1520.98 1124.49 1521.71 Q1121.6 1522.45 1118.92 1523.91 L1118.92 1518.5 Q1122.14 1517.26 1125.16 1516.65 Q1128.19 1516.02 1131.05 1516.02 Q1138.79 1516.02 1142.6 1520.03 Q1146.42 1524.04 1146.42 1532.19 Z" fill="#000000" fill-rule="nonzero" fill-opacity="1" /><path clip-path="url(#clip480)" d="M1184.08 1534.73 Q1184.08 1528.27 1181.4 1524.61 Q1178.76 1520.92 1174.11 1520.92 Q1169.47 1520.92 1166.79 1524.61 Q1164.15 1528.27 1164.15 1534.73 Q1164.15 1541.19 1166.79 1544.89 Q1169.47 1548.55 1174.11 1548.55 Q1178.76 1548.55 1181.4 1544.89 Q1184.08 1541.19 1184.08 1534.73 M1164.15 1522.29 Q1166 1519.1 1168.8 1517.58 Q1171.63 1516.02 1175.55 1516.02 Q1182.04 1516.02 1186.08 1521.17 Q1190.16 1526.33 1190.16 1534.73 Q1190.16 1543.13 1186.08 1548.29 Q1182.04 1553.45 1175.55 1553.45 Q1171.63 1553.45 1168.8 1551.92 Q1166 1550.36 1164.15 1547.18 L1164.15 1552.52 L1158.26 1552.52 L1158.26 1503 L1164.15 1503 L1164.15 1522.29 Z" fill="#000000" fill-rule="nonzero" fill-opacity="1" /><path clip-path="url(#clip480)" d="M1199.86 1516.88 L1205.72 1516.88 L1205.72 1552.52 L1199.86 1552.52 L1199.86 1516.88 M1199.86 1503 L1205.72 1503 L1205.72 1510.41 L1199.86 1510.41 L1199.86 1503 Z" fill="#000000" fill-rule="nonzero" fill-opacity="1" /><path clip-path="url(#clip480)" d="M1217.97 1503 L1223.83 1503 L1223.83 1552.52 L1217.97 1552.52 L1217.97 1503 Z" fill="#000000" fill-rule="nonzero" fill-opacity="1" /><path clip-path="url(#clip480)" d="M1236.08 1516.88 L1241.94 1516.88 L1241.94 1552.52 L1236.08 1552.52 L1236.08 1516.88 M1236.08 1503 L1241.94 1503 L1241.94 1510.41 L1236.08 1510.41 L1236.08 1503 Z" fill="#000000" fill-rule="nonzero" fill-opacity="1" /><path clip-path="url(#clip480)" d="M1259.99 1506.75 L1259.99 1516.88 L1272.05 1516.88 L1272.05 1521.43 L1259.99 1521.43 L1259.99 1540.78 Q1259.99 1545.14 1261.17 1546.38 Q1262.38 1547.62 1266.04 1547.62 L1272.05 1547.62 L1272.05 1552.52 L1266.04 1552.52 Q1259.26 1552.52 1256.68 1550.01 Q1254.1 1547.46 1254.1 1540.78 L1254.1 1521.43 L1249.8 1521.43 L1249.8 1516.88 L1254.1 1516.88 L1254.1 1506.75 L1259.99 1506.75 Z" fill="#000000" fill-rule="nonzero" fill-opacity="1" /><path clip-path="url(#clip480)" d="M1294.59 1555.83 Q1292.1 1562.2 1289.75 1564.14 Q1287.39 1566.08 1283.45 1566.08 L1278.77 1566.08 L1278.77 1561.18 L1282.2 1561.18 Q1284.62 1561.18 1285.96 1560.04 Q1287.3 1558.89 1288.92 1554.62 L1289.97 1551.95 L1275.55 1516.88 L1281.76 1516.88 L1292.9 1544.76 L1304.04 1516.88 L1310.25 1516.88 L1294.59 1555.83 Z" fill="#000000" fill-rule="nonzero" fill-opacity="1" /><path clip-path="url(#clip480)" d="M1353.12 1503.06 Q1348.85 1510.38 1346.78 1517.54 Q1344.72 1524.71 1344.72 1532.06 Q1344.72 1539.41 1346.78 1546.64 Q1348.89 1553.83 1353.12 1561.12 L1348.03 1561.12 Q1343.25 1553.64 1340.86 1546.41 Q1338.51 1539.19 1338.51 1532.06 Q1338.51 1524.96 1340.86 1517.77 Q1343.22 1510.57 1348.03 1503.06 L1353.12 1503.06 Z" fill="#000000" fill-rule="nonzero" fill-opacity="1" /><path clip-path="url(#clip480)" d="M1370.91 1533.3 Q1367.35 1532.54 1365.44 1530.47 Q1363.53 1528.43 1363.53 1525.47 Q1363.53 1520.98 1367.15 1518.47 Q1370.75 1515.98 1376.99 1515.98 Q1379.41 1515.98 1382.11 1516.37 Q1384.82 1516.75 1387.94 1517.51 L1387.94 1522.83 Q1384.85 1521.91 1382.31 1521.49 Q1379.73 1521.08 1377.47 1521.08 Q1373.68 1521.08 1371.48 1522.54 Q1369.26 1524.01 1369.26 1526.04 Q1369.26 1528.27 1371.42 1529.7 Q1373.55 1531.1 1377.24 1531.1 L1382.18 1531.1 L1382.18 1535.94 L1377.47 1535.94 Q1373.11 1535.94 1370.82 1537.56 Q1368.33 1539.35 1368.33 1542.15 Q1368.33 1545.01 1371.01 1546.79 Q1373.71 1548.58 1378.52 1548.58 Q1381.48 1548.58 1384.18 1548 Q1386.89 1547.4 1389.15 1546.22 L1389.15 1551.66 Q1386.28 1552.56 1383.61 1553 Q1380.9 1553.45 1378.36 1553.45 Q1370.78 1553.45 1366.68 1550.55 Q1362.57 1547.65 1362.57 1542.15 Q1362.57 1538.71 1364.77 1536.39 Q1366.96 1534.06 1370.91 1533.3 Z" fill="#000000" fill-rule="nonzero" fill-opacity="1" /><path clip-path="url(#clip480)" d="M1398.79 1503.06 L1403.88 1503.06 Q1408.66 1510.57 1411.01 1517.77 Q1413.4 1524.96 1413.4 1532.06 Q1413.4 1539.19 1411.01 1546.41 Q1408.66 1553.64 1403.88 1561.12 L1398.79 1561.12 Q1403.03 1553.83 1405.09 1546.64 Q1407.2 1539.41 1407.2 1532.06 Q1407.2 1524.71 1405.09 1517.54 Q1403.03 1510.38 1398.79 1503.06 Z" fill="#000000" fill-rule="nonzero" fill-opacity="1" /><polyline clip-path="url(#clip480)" style="stroke:#000000; stroke-linecap:round; stroke-linejoin:round; stroke-width:4; stroke-opacity:1; fill:none" points="255.046,1379.18 255.046,135.568 "/>
<polyline clip-path="url(#clip480)" style="stroke:#000000; stroke-linecap:round; stroke-linejoin:round; stroke-width:4; stroke-opacity:1; fill:none" points="255.046,1343.98 273.944,1343.98 "/>
<polyline clip-path="url(#clip480)" style="stroke:#000000; stroke-linecap:round; stroke-linejoin:round; stroke-width:4; stroke-opacity:1; fill:none" points="255.046,1050.68 273.944,1050.68 "/>
<polyline clip-path="url(#clip480)" style="stroke:#000000; stroke-linecap:round; stroke-linejoin:round; stroke-width:4; stroke-opacity:1; fill:none" points="255.046,757.373 273.944,757.373 "/>
<polyline clip-path="url(#clip480)" style="stroke:#000000; stroke-linecap:round; stroke-linejoin:round; stroke-width:4; stroke-opacity:1; fill:none" points="255.046,464.069 273.944,464.069 "/>
<polyline clip-path="url(#clip480)" style="stroke:#000000; stroke-linecap:round; stroke-linejoin:round; stroke-width:4; stroke-opacity:1; fill:none" points="255.046,170.765 273.944,170.765 "/>
<path clip-path="url(#clip480)" d="M137.709 1329.78 Q134.097 1329.78 132.269 1333.35 Q130.463 1336.89 130.463 1344.02 Q130.463 1351.12 132.269 1354.69 Q134.097 1358.23 137.709 1358.23 Q141.343 1358.23 143.148 1354.69 Q144.977 1351.12 144.977 1344.02 Q144.977 1336.89 143.148 1333.35 Q141.343 1329.78 137.709 1329.78 M137.709 1326.08 Q143.519 1326.08 146.574 1330.68 Q149.653 1335.27 149.653 1344.02 Q149.653 1352.74 146.574 1357.35 Q143.519 1361.93 137.709 1361.93 Q131.898 1361.93 128.82 1357.35 Q125.764 1352.74 125.764 1344.02 Q125.764 1335.27 128.82 1330.68 Q131.898 1326.08 137.709 1326.08 Z" fill="#000000" fill-rule="nonzero" fill-opacity="1" /><path clip-path="url(#clip480)" d="M157.87 1355.38 L162.755 1355.38 L162.755 1361.26 L157.87 1361.26 L157.87 1355.38 Z" fill="#000000" fill-rule="nonzero" fill-opacity="1" /><path clip-path="url(#clip480)" d="M182.94 1329.78 Q179.329 1329.78 177.5 1333.35 Q175.694 1336.89 175.694 1344.02 Q175.694 1351.12 177.5 1354.69 Q179.329 1358.23 182.94 1358.23 Q186.574 1358.23 188.38 1354.69 Q190.208 1351.12 190.208 1344.02 Q190.208 1336.89 188.38 1333.35 Q186.574 1329.78 182.94 1329.78 M182.94 1326.08 Q188.75 1326.08 191.805 1330.68 Q194.884 1335.27 194.884 1344.02 Q194.884 1352.74 191.805 1357.35 Q188.75 1361.93 182.94 1361.93 Q177.13 1361.93 174.051 1357.35 Q170.995 1352.74 170.995 1344.02 Q170.995 1335.27 174.051 1330.68 Q177.13 1326.08 182.94 1326.08 Z" fill="#000000" fill-rule="nonzero" fill-opacity="1" /><path clip-path="url(#clip480)" d="M213.102 1329.78 Q209.491 1329.78 207.662 1333.35 Q205.856 1336.89 205.856 1344.02 Q205.856 1351.12 207.662 1354.69 Q209.491 1358.23 213.102 1358.23 Q216.736 1358.23 218.541 1354.69 Q220.37 1351.12 220.37 1344.02 Q220.37 1336.89 218.541 1333.35 Q216.736 1329.78 213.102 1329.78 M213.102 1326.08 Q218.912 1326.08 221.967 1330.68 Q225.046 1335.27 225.046 1344.02 Q225.046 1352.74 221.967 1357.35 Q218.912 1361.93 213.102 1361.93 Q207.291 1361.93 204.213 1357.35 Q201.157 1352.74 201.157 1344.02 Q201.157 1335.27 204.213 1330.68 Q207.291 1326.08 213.102 1326.08 Z" fill="#000000" fill-rule="nonzero" fill-opacity="1" /><path clip-path="url(#clip480)" d="M138.704 1036.48 Q135.093 1036.48 133.264 1040.04 Q131.459 1043.58 131.459 1050.71 Q131.459 1057.82 133.264 1061.38 Q135.093 1064.93 138.704 1064.93 Q142.338 1064.93 144.144 1061.38 Q145.972 1057.82 145.972 1050.71 Q145.972 1043.58 144.144 1040.04 Q142.338 1036.48 138.704 1036.48 M138.704 1032.77 Q144.514 1032.77 147.57 1037.38 Q150.648 1041.96 150.648 1050.71 Q150.648 1059.44 147.57 1064.05 Q144.514 1068.63 138.704 1068.63 Q132.894 1068.63 129.815 1064.05 Q126.76 1059.44 126.76 1050.71 Q126.76 1041.96 129.815 1037.38 Q132.894 1032.77 138.704 1032.77 Z" fill="#000000" fill-rule="nonzero" fill-opacity="1" /><path clip-path="url(#clip480)" d="M158.866 1062.08 L163.75 1062.08 L163.75 1067.96 L158.866 1067.96 L158.866 1062.08 Z" fill="#000000" fill-rule="nonzero" fill-opacity="1" /><path clip-path="url(#clip480)" d="M177.963 1064.02 L194.282 1064.02 L194.282 1067.96 L172.338 1067.96 L172.338 1064.02 Q175 1061.27 179.583 1056.64 Q184.19 1051.99 185.37 1050.64 Q187.616 1048.12 188.495 1046.38 Q189.398 1044.62 189.398 1042.93 Q189.398 1040.18 187.454 1038.44 Q185.532 1036.71 182.431 1036.71 Q180.231 1036.71 177.778 1037.47 Q175.347 1038.24 172.569 1039.79 L172.569 1035.06 Q175.394 1033.93 177.847 1033.35 Q180.301 1032.77 182.338 1032.77 Q187.708 1032.77 190.903 1035.46 Q194.097 1038.14 194.097 1042.63 Q194.097 1044.76 193.287 1046.68 Q192.5 1048.58 190.393 1051.18 Q189.815 1051.85 186.713 1055.06 Q183.611 1058.26 177.963 1064.02 Z" fill="#000000" fill-rule="nonzero" fill-opacity="1" /><path clip-path="url(#clip480)" d="M204.143 1033.4 L222.5 1033.4 L222.5 1037.33 L208.426 1037.33 L208.426 1045.81 Q209.444 1045.46 210.463 1045.3 Q211.481 1045.11 212.5 1045.11 Q218.287 1045.11 221.666 1048.28 Q225.046 1051.45 225.046 1056.87 Q225.046 1062.45 221.574 1065.55 Q218.102 1068.63 211.782 1068.63 Q209.606 1068.63 207.338 1068.26 Q205.092 1067.89 202.685 1067.15 L202.685 1062.45 Q204.768 1063.58 206.991 1064.14 Q209.213 1064.69 211.69 1064.69 Q215.694 1064.69 218.032 1062.59 Q220.37 1060.48 220.37 1056.87 Q220.37 1053.26 218.032 1051.15 Q215.694 1049.05 211.69 1049.05 Q209.815 1049.05 207.94 1049.46 Q206.088 1049.88 204.143 1050.76 L204.143 1033.4 Z" fill="#000000" fill-rule="nonzero" fill-opacity="1" /><path clip-path="url(#clip480)" d="M137.709 743.172 Q134.097 743.172 132.269 746.737 Q130.463 750.279 130.463 757.408 Q130.463 764.515 132.269 768.079 Q134.097 771.621 137.709 771.621 Q141.343 771.621 143.148 768.079 Q144.977 764.515 144.977 757.408 Q144.977 750.279 143.148 746.737 Q141.343 743.172 137.709 743.172 M137.709 739.468 Q143.519 739.468 146.574 744.075 Q149.653 748.658 149.653 757.408 Q149.653 766.135 146.574 770.741 Q143.519 775.325 137.709 775.325 Q131.898 775.325 128.82 770.741 Q125.764 766.135 125.764 757.408 Q125.764 748.658 128.82 744.075 Q131.898 739.468 137.709 739.468 Z" fill="#000000" fill-rule="nonzero" fill-opacity="1" /><path clip-path="url(#clip480)" d="M157.87 768.774 L162.755 768.774 L162.755 774.653 L157.87 774.653 L157.87 768.774 Z" fill="#000000" fill-rule="nonzero" fill-opacity="1" /><path clip-path="url(#clip480)" d="M172.986 740.093 L191.343 740.093 L191.343 744.029 L177.269 744.029 L177.269 752.501 Q178.287 752.154 179.306 751.992 Q180.324 751.806 181.343 751.806 Q187.13 751.806 190.509 754.978 Q193.889 758.149 193.889 763.566 Q193.889 769.144 190.417 772.246 Q186.944 775.325 180.625 775.325 Q178.449 775.325 176.181 774.954 Q173.935 774.584 171.528 773.843 L171.528 769.144 Q173.611 770.279 175.833 770.834 Q178.056 771.39 180.532 771.39 Q184.537 771.39 186.875 769.283 Q189.213 767.177 189.213 763.566 Q189.213 759.954 186.875 757.848 Q184.537 755.742 180.532 755.742 Q178.657 755.742 176.782 756.158 Q174.931 756.575 172.986 757.455 L172.986 740.093 Z" fill="#000000" fill-rule="nonzero" fill-opacity="1" /><path clip-path="url(#clip480)" d="M213.102 743.172 Q209.491 743.172 207.662 746.737 Q205.856 750.279 205.856 757.408 Q205.856 764.515 207.662 768.079 Q209.491 771.621 213.102 771.621 Q216.736 771.621 218.541 768.079 Q220.37 764.515 220.37 757.408 Q220.37 750.279 218.541 746.737 Q216.736 743.172 213.102 743.172 M213.102 739.468 Q218.912 739.468 221.967 744.075 Q225.046 748.658 225.046 757.408 Q225.046 766.135 221.967 770.741 Q218.912 775.325 213.102 775.325 Q207.291 775.325 204.213 770.741 Q201.157 766.135 201.157 757.408 Q201.157 748.658 204.213 744.075 Q207.291 739.468 213.102 739.468 Z" fill="#000000" fill-rule="nonzero" fill-opacity="1" /><path clip-path="url(#clip480)" d="M138.704 449.868 Q135.093 449.868 133.264 453.433 Q131.459 456.974 131.459 464.104 Q131.459 471.21 133.264 474.775 Q135.093 478.317 138.704 478.317 Q142.338 478.317 144.144 474.775 Q145.972 471.21 145.972 464.104 Q145.972 456.974 144.144 453.433 Q142.338 449.868 138.704 449.868 M138.704 446.164 Q144.514 446.164 147.57 450.771 Q150.648 455.354 150.648 464.104 Q150.648 472.831 147.57 477.437 Q144.514 482.02 138.704 482.02 Q132.894 482.02 129.815 477.437 Q126.76 472.831 126.76 464.104 Q126.76 455.354 129.815 450.771 Q132.894 446.164 138.704 446.164 Z" fill="#000000" fill-rule="nonzero" fill-opacity="1" /><path clip-path="url(#clip480)" d="M158.866 475.469 L163.75 475.469 L163.75 481.349 L158.866 481.349 L158.866 475.469 Z" fill="#000000" fill-rule="nonzero" fill-opacity="1" /><path clip-path="url(#clip480)" d="M172.755 446.789 L194.977 446.789 L194.977 448.78 L182.431 481.349 L177.546 481.349 L189.352 450.724 L172.755 450.724 L172.755 446.789 Z" fill="#000000" fill-rule="nonzero" fill-opacity="1" /><path clip-path="url(#clip480)" d="M204.143 446.789 L222.5 446.789 L222.5 450.724 L208.426 450.724 L208.426 459.196 Q209.444 458.849 210.463 458.687 Q211.481 458.502 212.5 458.502 Q218.287 458.502 221.666 461.673 Q225.046 464.845 225.046 470.261 Q225.046 475.84 221.574 478.942 Q218.102 482.02 211.782 482.02 Q209.606 482.02 207.338 481.65 Q205.092 481.28 202.685 480.539 L202.685 475.84 Q204.768 476.974 206.991 477.53 Q209.213 478.085 211.69 478.085 Q215.694 478.085 218.032 475.979 Q220.37 473.872 220.37 470.261 Q220.37 466.65 218.032 464.544 Q215.694 462.437 211.69 462.437 Q209.815 462.437 207.94 462.854 Q206.088 463.27 204.143 464.15 L204.143 446.789 Z" fill="#000000" fill-rule="nonzero" fill-opacity="1" /><path clip-path="url(#clip480)" d="M128.519 184.109 L136.158 184.109 L136.158 157.744 L127.847 159.411 L127.847 155.151 L136.111 153.485 L140.787 153.485 L140.787 184.109 L148.426 184.109 L148.426 188.045 L128.519 188.045 L128.519 184.109 Z" fill="#000000" fill-rule="nonzero" fill-opacity="1" /><path clip-path="url(#clip480)" d="M157.87 182.165 L162.755 182.165 L162.755 188.045 L157.87 188.045 L157.87 182.165 Z" fill="#000000" fill-rule="nonzero" fill-opacity="1" /><path clip-path="url(#clip480)" d="M182.94 156.563 Q179.329 156.563 177.5 160.128 Q175.694 163.67 175.694 170.799 Q175.694 177.906 177.5 181.471 Q179.329 185.012 182.94 185.012 Q186.574 185.012 188.38 181.471 Q190.208 177.906 190.208 170.799 Q190.208 163.67 188.38 160.128 Q186.574 156.563 182.94 156.563 M182.94 152.86 Q188.75 152.86 191.805 157.466 Q194.884 162.049 194.884 170.799 Q194.884 179.526 191.805 184.133 Q188.75 188.716 182.94 188.716 Q177.13 188.716 174.051 184.133 Q170.995 179.526 170.995 170.799 Q170.995 162.049 174.051 157.466 Q177.13 152.86 182.94 152.86 Z" fill="#000000" fill-rule="nonzero" fill-opacity="1" /><path clip-path="url(#clip480)" d="M213.102 156.563 Q209.491 156.563 207.662 160.128 Q205.856 163.67 205.856 170.799 Q205.856 177.906 207.662 181.471 Q209.491 185.012 213.102 185.012 Q216.736 185.012 218.541 181.471 Q220.37 177.906 220.37 170.799 Q220.37 163.67 218.541 160.128 Q216.736 156.563 213.102 156.563 M213.102 152.86 Q218.912 152.86 221.967 157.466 Q225.046 162.049 225.046 170.799 Q225.046 179.526 221.967 184.133 Q218.912 188.716 213.102 188.716 Q207.291 188.716 204.213 184.133 Q201.157 179.526 201.157 170.799 Q201.157 162.049 204.213 157.466 Q207.291 152.86 213.102 152.86 Z" fill="#000000" fill-rule="nonzero" fill-opacity="1" /><path clip-path="url(#clip480)" d="M37.6484 915.402 L44.4279 915.402 Q41.4042 918.649 39.9083 922.341 Q38.4123 926.001 38.4123 930.139 Q38.4123 938.287 43.4094 942.616 Q48.3747 946.944 57.7959 946.944 Q67.1853 946.944 72.1824 942.616 Q77.1476 938.287 77.1476 930.139 Q77.1476 926.001 75.6517 922.341 Q74.1558 918.649 71.1321 915.402 L77.8479 915.402 Q80.1395 918.776 81.2854 922.564 Q82.4312 926.319 82.4312 930.521 Q82.4312 941.311 75.8427 947.517 Q69.2223 953.724 57.7959 953.724 Q46.3376 953.724 39.7491 947.517 Q33.1288 941.311 33.1288 930.521 Q33.1288 926.256 34.2746 922.5 Q35.3886 918.712 37.6484 915.402 Z" fill="#000000" fill-rule="nonzero" fill-opacity="1" /><path clip-path="url(#clip480)" d="M63.5887 889.526 Q63.5887 896.623 65.2119 899.361 Q66.8352 902.098 70.7501 902.098 Q73.8693 902.098 75.7154 900.061 Q77.5296 897.992 77.5296 894.459 Q77.5296 889.589 74.0921 886.661 Q70.6228 883.701 64.8937 883.701 L63.5887 883.701 L63.5887 889.526 M61.1697 877.844 L81.5082 877.844 L81.5082 883.701 L76.0973 883.701 Q79.3438 885.706 80.9034 888.698 Q82.4312 891.69 82.4312 896.019 Q82.4312 901.493 79.3756 904.74 Q76.2883 907.954 71.1321 907.954 Q65.1165 907.954 62.0609 903.944 Q59.0054 899.902 59.0054 891.913 L59.0054 883.701 L58.4325 883.701 Q54.3902 883.701 52.1941 886.375 Q49.9661 889.016 49.9661 893.822 Q49.9661 896.878 50.6981 899.774 Q51.4302 902.671 52.8943 905.344 L47.4835 905.344 Q46.2421 902.13 45.6374 899.106 Q45.0008 896.082 45.0008 893.218 Q45.0008 885.483 49.0112 881.664 Q53.0216 877.844 61.1697 877.844 Z" fill="#000000" fill-rule="nonzero" fill-opacity="1" /><path clip-path="url(#clip480)" d="M76.161 860.116 L95.0671 860.116 L95.0671 866.004 L45.8602 866.004 L45.8602 860.116 L51.2711 860.116 Q48.0882 858.27 46.5604 855.469 Q45.0008 852.636 45.0008 848.721 Q45.0008 842.228 50.1571 838.186 Q55.3133 834.112 63.716 834.112 Q72.1187 834.112 77.275 838.186 Q82.4312 842.228 82.4312 848.721 Q82.4312 852.636 80.9034 855.469 Q79.3438 858.27 76.161 860.116 M63.716 840.191 Q57.2548 840.191 53.5945 842.865 Q49.9024 845.507 49.9024 850.154 Q49.9024 854.801 53.5945 857.474 Q57.2548 860.116 63.716 860.116 Q70.1772 860.116 73.8693 857.474 Q77.5296 854.801 77.5296 850.154 Q77.5296 845.507 73.8693 842.865 Q70.1772 840.191 63.716 840.191 Z" fill="#000000" fill-rule="nonzero" fill-opacity="1" /><path clip-path="url(#clip480)" d="M63.5887 808.204 Q63.5887 815.301 65.2119 818.039 Q66.8352 820.776 70.7501 820.776 Q73.8693 820.776 75.7154 818.739 Q77.5296 816.67 77.5296 813.137 Q77.5296 808.267 74.0921 805.339 Q70.6228 802.379 64.8937 802.379 L63.5887 802.379 L63.5887 808.204 M61.1697 796.523 L81.5082 796.523 L81.5082 802.379 L76.0973 802.379 Q79.3438 804.384 80.9034 807.376 Q82.4312 810.368 82.4312 814.697 Q82.4312 820.171 79.3756 823.418 Q76.2883 826.632 71.1321 826.632 Q65.1165 826.632 62.0609 822.622 Q59.0054 818.58 59.0054 810.591 L59.0054 802.379 L58.4325 802.379 Q54.3902 802.379 52.1941 805.053 Q49.9661 807.694 49.9661 812.501 Q49.9661 815.556 50.6981 818.452 Q51.4302 821.349 52.8943 824.022 L47.4835 824.022 Q46.2421 820.808 45.6374 817.784 Q45.0008 814.76 45.0008 811.896 Q45.0008 804.161 49.0112 800.342 Q53.0216 796.523 61.1697 796.523 Z" fill="#000000" fill-rule="nonzero" fill-opacity="1" /><path clip-path="url(#clip480)" d="M47.2288 758.806 L52.7033 758.806 Q51.3347 761.288 50.6663 763.803 Q49.9661 766.285 49.9661 768.832 Q49.9661 774.529 53.5945 777.68 Q57.1912 780.831 63.716 780.831 Q70.2409 780.831 73.8693 777.68 Q77.4659 774.529 77.4659 768.832 Q77.4659 766.285 76.7975 763.803 Q76.0973 761.288 74.7287 758.806 L80.1395 758.806 Q81.2854 761.257 81.8583 763.898 Q82.4312 766.508 82.4312 769.468 Q82.4312 777.521 77.3704 782.263 Q72.3097 787.006 63.716 787.006 Q54.995 787.006 49.9979 782.232 Q45.0008 777.425 45.0008 769.086 Q45.0008 766.381 45.5737 763.803 Q46.1148 761.225 47.2288 758.806 Z" fill="#000000" fill-rule="nonzero" fill-opacity="1" /><path clip-path="url(#clip480)" d="M45.8602 748.621 L45.8602 742.764 L81.5082 742.764 L81.5082 748.621 L45.8602 748.621 M31.983 748.621 L31.983 742.764 L39.399 742.764 L39.399 748.621 L31.983 748.621 Z" fill="#000000" fill-rule="nonzero" fill-opacity="1" /><path clip-path="url(#clip480)" d="M35.7387 724.717 L45.8602 724.717 L45.8602 712.654 L50.4117 712.654 L50.4117 724.717 L69.7634 724.717 Q74.1239 724.717 75.3653 723.54 Q76.6066 722.33 76.6066 718.67 L76.6066 712.654 L81.5082 712.654 L81.5082 718.67 Q81.5082 725.449 78.9937 728.028 Q76.4474 730.606 69.7634 730.606 L50.4117 730.606 L50.4117 734.903 L45.8602 734.903 L45.8602 730.606 L35.7387 730.606 L35.7387 724.717 Z" fill="#000000" fill-rule="nonzero" fill-opacity="1" /><path clip-path="url(#clip480)" d="M84.8183 690.12 Q91.184 692.602 93.1256 694.958 Q95.0671 697.313 95.0671 701.26 L95.0671 705.939 L90.1655 705.939 L90.1655 702.501 Q90.1655 700.082 89.0197 698.745 Q87.8739 697.409 83.6088 695.785 L80.9352 694.735 L45.8602 709.153 L45.8602 702.947 L73.742 691.807 L45.8602 680.667 L45.8602 674.46 L84.8183 690.12 Z" fill="#000000" fill-rule="nonzero" fill-opacity="1" /><path clip-path="url(#clip480)" d="M32.0466 631.587 Q39.3672 635.852 46.5286 637.921 Q53.69 639.99 61.0424 639.99 Q68.3948 639.99 75.6199 637.921 Q82.8131 635.82 90.1019 631.587 L90.1019 636.68 Q82.6222 641.454 75.3971 643.841 Q68.172 646.196 61.0424 646.196 Q53.9446 646.196 46.7514 643.841 Q39.5582 641.486 32.0466 636.68 L32.0466 631.587 Z" fill="#000000" fill-rule="nonzero" fill-opacity="1" /><path clip-path="url(#clip480)" d="M37.6484 584.385 L44.4279 584.385 Q41.4042 587.632 39.9083 591.324 Q38.4123 594.984 38.4123 599.122 Q38.4123 607.27 43.4094 611.599 Q48.3747 615.927 57.7959 615.927 Q67.1853 615.927 72.1824 611.599 Q77.1476 607.27 77.1476 599.122 Q77.1476 594.984 75.6517 591.324 Q74.1558 587.632 71.1321 584.385 L77.8479 584.385 Q80.1395 587.759 81.2854 591.547 Q82.4312 595.303 82.4312 599.504 Q82.4312 610.294 75.8427 616.5 Q69.2223 622.707 57.7959 622.707 Q46.3376 622.707 39.7491 616.5 Q33.1288 610.294 33.1288 599.504 Q33.1288 595.239 34.2746 591.483 Q35.3886 587.696 37.6484 584.385 Z" fill="#000000" fill-rule="nonzero" fill-opacity="1" /><path clip-path="url(#clip480)" d="M32.0466 575.633 L32.0466 570.54 Q39.5582 565.766 46.7514 563.41 Q53.9446 561.023 61.0424 561.023 Q68.172 561.023 75.3971 563.41 Q82.6222 565.766 90.1019 570.54 L90.1019 575.633 Q82.8131 571.399 75.6199 569.331 Q68.3948 567.23 61.0424 567.23 Q53.69 567.23 46.5286 569.331 Q39.3672 571.399 32.0466 575.633 Z" fill="#000000" fill-rule="nonzero" fill-opacity="1" /><path clip-path="url(#clip480)" d="M239.519 43.6931 L239.519 65.8515 L252.644 65.8515 Q259.247 65.8515 262.407 63.1374 Q265.607 60.3828 265.607 54.752 Q265.607 49.0808 262.407 46.4072 Q259.247 43.6931 252.644 43.6931 L239.519 43.6931 M239.519 18.8205 L239.519 37.0496 L251.631 37.0496 Q257.627 37.0496 260.543 34.8216 Q263.5 32.5531 263.5 27.935 Q263.5 23.3575 260.543 21.089 Q257.627 18.8205 251.631 18.8205 L239.519 18.8205 M231.336 12.096 L252.239 12.096 Q261.596 12.096 266.66 15.9849 Q271.724 19.8737 271.724 27.0438 Q271.724 32.5936 269.131 35.8748 Q266.539 39.156 261.515 39.9662 Q267.551 41.2625 270.873 45.3944 Q274.235 49.4858 274.235 55.6432 Q274.235 63.745 268.726 68.1605 Q263.217 72.576 253.049 72.576 L231.336 72.576 L231.336 12.096 Z" fill="#000000" fill-rule="nonzero" fill-opacity="1" /><path clip-path="url(#clip480)" d="M287.927 27.2059 L295.381 27.2059 L295.381 72.576 L287.927 72.576 L287.927 27.2059 M287.927 9.54393 L295.381 9.54393 L295.381 18.9825 L287.927 18.9825 L287.927 9.54393 Z" fill="#000000" fill-rule="nonzero" fill-opacity="1" /><path clip-path="url(#clip480)" d="M348.691 45.1919 L348.691 72.576 L341.237 72.576 L341.237 45.4349 Q341.237 38.994 338.726 35.7938 Q336.214 32.5936 331.191 32.5936 Q325.155 32.5936 321.671 36.4419 Q318.188 40.2903 318.188 46.9338 L318.188 72.576 L310.693 72.576 L310.693 27.2059 L318.188 27.2059 L318.188 34.2544 Q320.861 30.163 324.466 28.1376 Q328.112 26.1121 332.852 26.1121 Q340.67 26.1121 344.681 30.9732 Q348.691 35.7938 348.691 45.1919 Z" fill="#000000" fill-rule="nonzero" fill-opacity="1" /><path clip-path="url(#clip480)" d="M384.177 49.7694 Q375.143 49.7694 371.66 51.8354 Q368.176 53.9013 368.176 58.8839 Q368.176 62.8538 370.768 65.2034 Q373.401 67.5124 377.898 67.5124 Q384.096 67.5124 387.823 63.1374 Q391.59 58.7219 391.59 51.4303 L391.59 49.7694 L384.177 49.7694 M399.044 46.6907 L399.044 72.576 L391.59 72.576 L391.59 65.6895 Q389.038 69.8214 385.23 71.8063 Q381.422 73.7508 375.913 73.7508 Q368.945 73.7508 364.813 69.8619 Q360.722 65.9325 360.722 59.3701 Q360.722 51.7138 365.826 47.825 Q370.971 43.9361 381.139 43.9361 L391.59 43.9361 L391.59 43.2069 Q391.59 38.0623 388.187 35.2672 Q384.825 32.4315 378.708 32.4315 Q374.819 32.4315 371.133 33.3632 Q367.447 34.295 364.044 36.1584 L364.044 29.2718 Q368.135 27.692 371.984 26.9223 Q375.832 26.1121 379.478 26.1121 Q389.321 26.1121 394.183 31.2163 Q399.044 36.3204 399.044 46.6907 Z" fill="#000000" fill-rule="nonzero" fill-opacity="1" /><path clip-path="url(#clip480)" d="M440.687 34.1734 Q439.431 33.4443 437.932 33.1202 Q436.474 32.7556 434.692 32.7556 Q428.372 32.7556 424.969 36.8875 Q421.607 40.9789 421.607 48.6757 L421.607 72.576 L414.113 72.576 L414.113 27.2059 L421.607 27.2059 L421.607 34.2544 Q423.957 30.1225 427.724 28.1376 Q431.491 26.1121 436.879 26.1121 Q437.649 26.1121 438.58 26.2337 Q439.512 26.3147 440.646 26.5172 L440.687 34.1734 Z" fill="#000000" fill-rule="nonzero" fill-opacity="1" /><path clip-path="url(#clip480)" d="M467.382 76.7889 Q464.223 84.8907 461.225 87.3618 Q458.227 89.8329 453.204 89.8329 L447.249 89.8329 L447.249 83.5945 L451.624 83.5945 Q454.703 83.5945 456.404 82.1361 Q458.106 80.6778 460.172 75.2496 L461.509 71.8468 L443.158 27.2059 L451.057 27.2059 L465.235 62.6918 L479.414 27.2059 L487.313 27.2059 L467.382 76.7889 Z" fill="#000000" fill-rule="nonzero" fill-opacity="1" /><path clip-path="url(#clip480)" d="M560.553 14.0809 L560.553 22.0612 Q555.895 19.8332 551.763 18.7395 Q547.631 17.6457 543.782 17.6457 Q537.098 17.6457 533.453 20.2383 Q529.847 22.8309 529.847 27.611 Q529.847 31.6214 532.237 33.6873 Q534.668 35.7128 541.392 36.9686 L546.335 37.9813 Q555.49 39.7232 559.824 44.1387 Q564.199 48.5136 564.199 55.8863 Q564.199 64.6767 558.285 69.2137 Q552.411 73.7508 541.028 73.7508 Q536.734 73.7508 531.873 72.7785 Q527.052 71.8063 521.867 69.9024 L521.867 61.4765 Q526.85 64.2716 531.63 65.6895 Q536.41 67.1073 541.028 67.1073 Q548.036 67.1073 551.844 64.3527 Q555.652 61.598 555.652 56.4939 Q555.652 52.0379 552.897 49.5264 Q550.183 47.0148 543.944 45.759 L538.962 44.7868 Q529.807 42.9639 525.715 39.075 Q521.624 35.1862 521.624 28.2591 Q521.624 20.2383 527.255 15.6203 Q532.926 11.0023 542.851 11.0023 Q547.104 11.0023 551.52 11.7719 Q555.935 12.5416 560.553 14.0809 Z" fill="#000000" fill-rule="nonzero" fill-opacity="1" /><path clip-path="url(#clip480)" d="M595.512 76.7889 Q592.353 84.8907 589.355 87.3618 Q586.357 89.8329 581.334 89.8329 L575.379 89.8329 L575.379 83.5945 L579.754 83.5945 Q582.833 83.5945 584.535 82.1361 Q586.236 80.6778 588.302 75.2496 L589.639 71.8468 L571.288 27.2059 L579.187 27.2059 L593.366 62.6918 L607.544 27.2059 L615.443 27.2059 L595.512 76.7889 Z" fill="#000000" fill-rule="nonzero" fill-opacity="1" /><path clip-path="url(#clip480)" d="M661.056 35.9153 Q663.851 30.8922 667.74 28.5022 Q671.629 26.1121 676.895 26.1121 Q683.984 26.1121 687.833 31.0947 Q691.681 36.0368 691.681 45.1919 L691.681 72.576 L684.187 72.576 L684.187 45.4349 Q684.187 38.913 681.878 35.7533 Q679.569 32.5936 674.829 32.5936 Q669.036 32.5936 665.674 36.4419 Q662.312 40.2903 662.312 46.9338 L662.312 72.576 L654.818 72.576 L654.818 45.4349 Q654.818 38.8725 652.509 35.7533 Q650.2 32.5936 645.379 32.5936 Q639.667 32.5936 636.305 36.4824 Q632.943 40.3308 632.943 46.9338 L632.943 72.576 L625.449 72.576 L625.449 27.2059 L632.943 27.2059 L632.943 34.2544 Q635.495 30.082 639.06 28.0971 Q642.625 26.1121 647.526 26.1121 Q652.468 26.1121 655.911 28.6237 Q659.395 31.1352 661.056 35.9153 Z" fill="#000000" fill-rule="nonzero" fill-opacity="1" /><path clip-path="url(#clip480)" d="M741.872 35.9153 Q744.667 30.8922 748.556 28.5022 Q752.445 26.1121 757.711 26.1121 Q764.8 26.1121 768.648 31.0947 Q772.496 36.0368 772.496 45.1919 L772.496 72.576 L765.002 72.576 L765.002 45.4349 Q765.002 38.913 762.693 35.7533 Q760.384 32.5936 755.645 32.5936 Q749.852 32.5936 746.49 36.4419 Q743.127 40.2903 743.127 46.9338 L743.127 72.576 L735.633 72.576 L735.633 45.4349 Q735.633 38.8725 733.324 35.7533 Q731.015 32.5936 726.195 32.5936 Q720.483 32.5936 717.121 36.4824 Q713.758 40.3308 713.758 46.9338 L713.758 72.576 L706.264 72.576 L706.264 27.2059 L713.758 27.2059 L713.758 34.2544 Q716.31 30.082 719.875 28.0971 Q723.44 26.1121 728.342 26.1121 Q733.284 26.1121 736.727 28.6237 Q740.211 31.1352 741.872 35.9153 Z" fill="#000000" fill-rule="nonzero" fill-opacity="1" /><path clip-path="url(#clip480)" d="M826.171 48.0275 L826.171 51.6733 L791.9 51.6733 Q792.386 59.3701 796.518 63.421 Q800.691 67.4314 808.104 67.4314 Q812.398 67.4314 816.408 66.3781 Q820.459 65.3249 824.429 63.2184 L824.429 70.267 Q820.419 71.9684 816.206 72.8596 Q811.993 73.7508 807.658 73.7508 Q796.802 73.7508 790.442 67.4314 Q784.123 61.1119 784.123 50.3365 Q784.123 39.1965 790.118 32.6746 Q796.154 26.1121 806.362 26.1121 Q815.517 26.1121 820.824 32.0264 Q826.171 37.9003 826.171 48.0275 M818.717 45.84 Q818.636 39.7232 815.274 36.0774 Q811.952 32.4315 806.443 32.4315 Q800.205 32.4315 796.437 35.9558 Q792.711 39.4801 792.143 45.8805 L818.717 45.84 Z" fill="#000000" fill-rule="nonzero" fill-opacity="1" /><path clip-path="url(#clip480)" d="M845.777 14.324 L845.777 27.2059 L861.13 27.2059 L861.13 32.9987 L845.777 32.9987 L845.777 57.6282 Q845.777 63.1779 847.276 64.7578 Q848.816 66.3376 853.474 66.3376 L861.13 66.3376 L861.13 72.576 L853.474 72.576 Q844.846 72.576 841.564 69.3758 Q838.283 66.1351 838.283 57.6282 L838.283 32.9987 L832.814 32.9987 L832.814 27.2059 L838.283 27.2059 L838.283 14.324 L845.777 14.324 Z" fill="#000000" fill-rule="nonzero" fill-opacity="1" /><path clip-path="url(#clip480)" d="M897.224 34.1734 Q895.968 33.4443 894.469 33.1202 Q893.011 32.7556 891.228 32.7556 Q884.909 32.7556 881.506 36.8875 Q878.144 40.9789 878.144 48.6757 L878.144 72.576 L870.65 72.576 L870.65 27.2059 L878.144 27.2059 L878.144 34.2544 Q880.494 30.1225 884.261 28.1376 Q888.028 26.1121 893.416 26.1121 Q894.186 26.1121 895.117 26.2337 Q896.049 26.3147 897.183 26.5172 L897.224 34.1734 Z" fill="#000000" fill-rule="nonzero" fill-opacity="1" /><path clip-path="url(#clip480)" d="M905.042 27.2059 L912.496 27.2059 L912.496 72.576 L905.042 72.576 L905.042 27.2059 M905.042 9.54393 L912.496 9.54393 L912.496 18.9825 L905.042 18.9825 L905.042 9.54393 Z" fill="#000000" fill-rule="nonzero" fill-opacity="1" /><path clip-path="url(#clip480)" d="M960.742 28.9478 L960.742 35.9153 Q957.582 34.1734 954.382 33.3227 Q951.222 32.4315 947.982 32.4315 Q940.731 32.4315 936.72 37.0496 Q932.71 41.6271 932.71 49.9314 Q932.71 58.2358 936.72 62.8538 Q940.731 67.4314 947.982 67.4314 Q951.222 67.4314 954.382 66.5807 Q957.582 65.6895 960.742 63.9476 L960.742 70.8341 Q957.623 72.2924 954.261 73.0216 Q950.939 73.7508 947.171 73.7508 Q936.923 73.7508 930.887 67.3098 Q924.851 60.8689 924.851 49.9314 Q924.851 38.832 930.927 32.472 Q937.044 26.1121 947.658 26.1121 Q951.101 26.1121 954.382 26.8413 Q957.663 27.5299 960.742 28.9478 Z" fill="#000000" fill-rule="nonzero" fill-opacity="1" /><path clip-path="url(#clip480)" d="M1045.69 16.7545 L1045.69 25.383 Q1041.56 21.5346 1036.86 19.6307 Q1032.2 17.7268 1026.93 17.7268 Q1016.56 17.7268 1011.05 24.0867 Q1005.55 30.4061 1005.55 42.3968 Q1005.55 54.3469 1011.05 60.7069 Q1016.56 67.0263 1026.93 67.0263 Q1032.2 67.0263 1036.86 65.1223 Q1041.56 63.2184 1045.69 59.3701 L1045.69 67.9175 Q1041.4 70.8341 1036.57 72.2924 Q1031.79 73.7508 1026.45 73.7508 Q1012.72 73.7508 1004.82 65.3654 Q996.917 56.9395 996.917 42.3968 Q996.917 27.8135 1004.82 19.4281 Q1012.72 11.0023 1026.45 11.0023 Q1031.88 11.0023 1036.66 12.4606 Q1041.48 13.8784 1045.69 16.7545 Z" fill="#000000" fill-rule="nonzero" fill-opacity="1" /><path clip-path="url(#clip480)" d="M1095.72 45.1919 L1095.72 72.576 L1088.26 72.576 L1088.26 45.4349 Q1088.26 38.994 1085.75 35.7938 Q1083.24 32.5936 1078.22 32.5936 Q1072.18 32.5936 1068.7 36.4419 Q1065.21 40.2903 1065.21 46.9338 L1065.21 72.576 L1057.72 72.576 L1057.72 9.54393 L1065.21 9.54393 L1065.21 34.2544 Q1067.89 30.163 1071.49 28.1376 Q1075.14 26.1121 1079.88 26.1121 Q1087.7 26.1121 1091.71 30.9732 Q1095.72 35.7938 1095.72 45.1919 Z" fill="#000000" fill-rule="nonzero" fill-opacity="1" /><path clip-path="url(#clip480)" d="M1131.2 49.7694 Q1122.17 49.7694 1118.69 51.8354 Q1115.2 53.9013 1115.2 58.8839 Q1115.2 62.8538 1117.8 65.2034 Q1120.43 67.5124 1124.93 67.5124 Q1131.12 67.5124 1134.85 63.1374 Q1138.62 58.7219 1138.62 51.4303 L1138.62 49.7694 L1131.2 49.7694 M1146.07 46.6907 L1146.07 72.576 L1138.62 72.576 L1138.62 65.6895 Q1136.07 69.8214 1132.26 71.8063 Q1128.45 73.7508 1122.94 73.7508 Q1115.97 73.7508 1111.84 69.8619 Q1107.75 65.9325 1107.75 59.3701 Q1107.75 51.7138 1112.85 47.825 Q1118 43.9361 1128.17 43.9361 L1138.62 43.9361 L1138.62 43.2069 Q1138.62 38.0623 1135.21 35.2672 Q1131.85 32.4315 1125.74 32.4315 Q1121.85 32.4315 1118.16 33.3632 Q1114.47 34.295 1111.07 36.1584 L1111.07 29.2718 Q1115.16 27.692 1119.01 26.9223 Q1122.86 26.1121 1126.51 26.1121 Q1136.35 26.1121 1141.21 31.2163 Q1146.07 36.3204 1146.07 46.6907 Z" fill="#000000" fill-rule="nonzero" fill-opacity="1" /><path clip-path="url(#clip480)" d="M1199.14 45.1919 L1199.14 72.576 L1191.68 72.576 L1191.68 45.4349 Q1191.68 38.994 1189.17 35.7938 Q1186.66 32.5936 1181.64 32.5936 Q1175.6 32.5936 1172.12 36.4419 Q1168.63 40.2903 1168.63 46.9338 L1168.63 72.576 L1161.14 72.576 L1161.14 27.2059 L1168.63 27.2059 L1168.63 34.2544 Q1171.31 30.163 1174.91 28.1376 Q1178.56 26.1121 1183.3 26.1121 Q1191.12 26.1121 1195.13 30.9732 Q1199.14 35.7938 1199.14 45.1919 Z" fill="#000000" fill-rule="nonzero" fill-opacity="1" /><path clip-path="url(#clip480)" d="M1251.72 45.1919 L1251.72 72.576 L1244.26 72.576 L1244.26 45.4349 Q1244.26 38.994 1241.75 35.7938 Q1239.24 32.5936 1234.22 32.5936 Q1228.18 32.5936 1224.7 36.4419 Q1221.22 40.2903 1221.22 46.9338 L1221.22 72.576 L1213.72 72.576 L1213.72 27.2059 L1221.22 27.2059 L1221.22 34.2544 Q1223.89 30.163 1227.49 28.1376 Q1231.14 26.1121 1235.88 26.1121 Q1243.7 26.1121 1247.71 30.9732 Q1251.72 35.7938 1251.72 45.1919 Z" fill="#000000" fill-rule="nonzero" fill-opacity="1" /><path clip-path="url(#clip480)" d="M1305.39 48.0275 L1305.39 51.6733 L1271.12 51.6733 Q1271.61 59.3701 1275.74 63.421 Q1279.91 67.4314 1287.33 67.4314 Q1291.62 67.4314 1295.63 66.3781 Q1299.68 65.3249 1303.65 63.2184 L1303.65 70.267 Q1299.64 71.9684 1295.43 72.8596 Q1291.21 73.7508 1286.88 73.7508 Q1276.02 73.7508 1269.66 67.4314 Q1263.34 61.1119 1263.34 50.3365 Q1263.34 39.1965 1269.34 32.6746 Q1275.38 26.1121 1285.58 26.1121 Q1294.74 26.1121 1300.05 32.0264 Q1305.39 37.9003 1305.39 48.0275 M1297.94 45.84 Q1297.86 39.7232 1294.5 36.0774 Q1291.17 32.4315 1285.67 32.4315 Q1279.43 32.4315 1275.66 35.9558 Q1271.93 39.4801 1271.37 45.8805 L1297.94 45.84 Z" fill="#000000" fill-rule="nonzero" fill-opacity="1" /><path clip-path="url(#clip480)" d="M1317.63 9.54393 L1325.08 9.54393 L1325.08 72.576 L1317.63 72.576 L1317.63 9.54393 Z" fill="#000000" fill-rule="nonzero" fill-opacity="1" /><path clip-path="url(#clip480)" d="M1384.95 9.62495 Q1379.52 18.942 1376.89 28.0566 Q1374.26 37.1711 1374.26 46.5287 Q1374.26 55.8863 1376.89 65.0818 Q1379.57 74.2369 1384.95 83.5134 L1378.47 83.5134 Q1372.39 73.9938 1369.36 64.7983 Q1366.36 55.6027 1366.36 46.5287 Q1366.36 37.4952 1369.36 28.3401 Q1372.35 19.1851 1378.47 9.62495 L1384.95 9.62495 Z" fill="#000000" fill-rule="nonzero" fill-opacity="1" /><path clip-path="url(#clip480)" d="M1407.92 43.6931 L1407.92 65.8515 L1421.05 65.8515 Q1427.65 65.8515 1430.81 63.1374 Q1434.01 60.3828 1434.01 54.752 Q1434.01 49.0808 1430.81 46.4072 Q1427.65 43.6931 1421.05 43.6931 L1407.92 43.6931 M1407.92 18.8205 L1407.92 37.0496 L1420.03 37.0496 Q1426.03 37.0496 1428.95 34.8216 Q1431.9 32.5531 1431.9 27.935 Q1431.9 23.3575 1428.95 21.089 Q1426.03 18.8205 1420.03 18.8205 L1407.92 18.8205 M1399.74 12.096 L1420.64 12.096 Q1430 12.096 1435.06 15.9849 Q1440.13 19.8737 1440.13 27.0438 Q1440.13 32.5936 1437.53 35.8748 Q1434.94 39.156 1429.92 39.9662 Q1435.95 41.2625 1439.28 45.3944 Q1442.64 49.4858 1442.64 55.6432 Q1442.64 63.745 1437.13 68.1605 Q1431.62 72.576 1421.45 72.576 L1399.74 72.576 L1399.74 12.096 Z" fill="#000000" fill-rule="nonzero" fill-opacity="1" /><path clip-path="url(#clip480)" d="M1491.45 14.0809 L1491.45 22.0612 Q1486.79 19.8332 1482.66 18.7395 Q1478.53 17.6457 1474.68 17.6457 Q1468 17.6457 1464.35 20.2383 Q1460.75 22.8309 1460.75 27.611 Q1460.75 31.6214 1463.14 33.6873 Q1465.57 35.7128 1472.29 36.9686 L1477.23 37.9813 Q1486.39 39.7232 1490.72 44.1387 Q1495.1 48.5136 1495.1 55.8863 Q1495.1 64.6767 1489.18 69.2137 Q1483.31 73.7508 1471.93 73.7508 Q1467.63 73.7508 1462.77 72.7785 Q1457.95 71.8063 1452.76 69.9024 L1452.76 61.4765 Q1457.75 64.2716 1462.53 65.6895 Q1467.31 67.1073 1471.93 67.1073 Q1478.93 67.1073 1482.74 64.3527 Q1486.55 61.598 1486.55 56.4939 Q1486.55 52.0379 1483.79 49.5264 Q1481.08 47.0148 1474.84 45.759 L1469.86 44.7868 Q1460.7 42.9639 1456.61 39.075 Q1452.52 35.1862 1452.52 28.2591 Q1452.52 20.2383 1458.15 15.6203 Q1463.82 11.0023 1473.75 11.0023 Q1478 11.0023 1482.42 11.7719 Q1486.83 12.5416 1491.45 14.0809 Z" fill="#000000" fill-rule="nonzero" fill-opacity="1" /><path clip-path="url(#clip480)" d="M1553.15 16.7545 L1553.15 25.383 Q1549.01 21.5346 1544.32 19.6307 Q1539.66 17.7268 1534.39 17.7268 Q1524.02 17.7268 1518.51 24.0867 Q1513 30.4061 1513 42.3968 Q1513 54.3469 1518.51 60.7069 Q1524.02 67.0263 1534.39 67.0263 Q1539.66 67.0263 1544.32 65.1223 Q1549.01 63.2184 1553.15 59.3701 L1553.15 67.9175 Q1548.85 70.8341 1544.03 72.2924 Q1539.25 73.7508 1533.9 73.7508 Q1520.17 73.7508 1512.27 65.3654 Q1504.37 56.9395 1504.37 42.3968 Q1504.37 27.8135 1512.27 19.4281 Q1520.17 11.0023 1533.9 11.0023 Q1539.33 11.0023 1544.11 12.4606 Q1548.93 13.8784 1553.15 16.7545 Z" fill="#000000" fill-rule="nonzero" fill-opacity="1" /><path clip-path="url(#clip480)" d="M1564.29 9.62495 L1570.77 9.62495 Q1576.84 19.1851 1579.84 28.3401 Q1582.88 37.4952 1582.88 46.5287 Q1582.88 55.6027 1579.84 64.7983 Q1576.84 73.9938 1570.77 83.5134 L1564.29 83.5134 Q1569.67 74.2369 1572.31 65.0818 Q1574.98 55.8863 1574.98 46.5287 Q1574.98 37.1711 1572.31 28.0566 Q1569.67 18.942 1564.29 9.62495 Z" fill="#000000" fill-rule="nonzero" fill-opacity="1" /><path clip-path="url(#clip480)" d="M1669.81 16.7545 L1669.81 25.383 Q1665.68 21.5346 1660.98 19.6307 Q1656.32 17.7268 1651.06 17.7268 Q1640.69 17.7268 1635.18 24.0867 Q1629.67 30.4061 1629.67 42.3968 Q1629.67 54.3469 1635.18 60.7069 Q1640.69 67.0263 1651.06 67.0263 Q1656.32 67.0263 1660.98 65.1223 Q1665.68 63.2184 1669.81 59.3701 L1669.81 67.9175 Q1665.52 70.8341 1660.7 72.2924 Q1655.92 73.7508 1650.57 73.7508 Q1636.84 73.7508 1628.94 65.3654 Q1621.04 56.9395 1621.04 42.3968 Q1621.04 27.8135 1628.94 19.4281 Q1636.84 11.0023 1650.57 11.0023 Q1656 11.0023 1660.78 12.4606 Q1665.6 13.8784 1669.81 16.7545 Z" fill="#000000" fill-rule="nonzero" fill-opacity="1" /><path clip-path="url(#clip480)" d="M1702.75 49.7694 Q1693.71 49.7694 1690.23 51.8354 Q1686.75 53.9013 1686.75 58.8839 Q1686.75 62.8538 1689.34 65.2034 Q1691.97 67.5124 1696.47 67.5124 Q1702.67 67.5124 1706.39 63.1374 Q1710.16 58.7219 1710.16 51.4303 L1710.16 49.7694 L1702.75 49.7694 M1717.61 46.6907 L1717.61 72.576 L1710.16 72.576 L1710.16 65.6895 Q1707.61 69.8214 1703.8 71.8063 Q1699.99 73.7508 1694.48 73.7508 Q1687.51 73.7508 1683.38 69.8619 Q1679.29 65.9325 1679.29 59.3701 Q1679.29 51.7138 1684.4 47.825 Q1689.54 43.9361 1699.71 43.9361 L1710.16 43.9361 L1710.16 43.2069 Q1710.16 38.0623 1706.76 35.2672 Q1703.39 32.4315 1697.28 32.4315 Q1693.39 32.4315 1689.7 33.3632 Q1686.02 34.295 1682.61 36.1584 L1682.61 29.2718 Q1686.7 27.692 1690.55 26.9223 Q1694.4 26.1121 1698.05 26.1121 Q1707.89 26.1121 1712.75 31.2163 Q1717.61 36.3204 1717.61 46.6907 Z" fill="#000000" fill-rule="nonzero" fill-opacity="1" /><path clip-path="url(#clip480)" d="M1740.18 65.7705 L1740.18 89.8329 L1732.68 89.8329 L1732.68 27.2059 L1740.18 27.2059 L1740.18 34.0924 Q1742.53 30.0415 1746.09 28.0971 Q1749.7 26.1121 1754.68 26.1121 Q1762.94 26.1121 1768.09 32.6746 Q1773.27 39.2371 1773.27 49.9314 Q1773.27 60.6258 1768.09 67.1883 Q1762.94 73.7508 1754.68 73.7508 Q1749.7 73.7508 1746.09 71.8063 Q1742.53 69.8214 1740.18 65.7705 M1765.54 49.9314 Q1765.54 41.7081 1762.13 37.0496 Q1758.77 32.3505 1752.86 32.3505 Q1746.94 32.3505 1743.54 37.0496 Q1740.18 41.7081 1740.18 49.9314 Q1740.18 58.1548 1743.54 62.8538 Q1746.94 67.5124 1752.86 67.5124 Q1758.77 67.5124 1762.13 62.8538 Q1765.54 58.1548 1765.54 49.9314 Z" fill="#000000" fill-rule="nonzero" fill-opacity="1" /><path clip-path="url(#clip480)" d="M1806.25 49.7694 Q1797.21 49.7694 1793.73 51.8354 Q1790.25 53.9013 1790.25 58.8839 Q1790.25 62.8538 1792.84 65.2034 Q1795.47 67.5124 1799.97 67.5124 Q1806.17 67.5124 1809.89 63.1374 Q1813.66 58.7219 1813.66 51.4303 L1813.66 49.7694 L1806.25 49.7694 M1821.11 46.6907 L1821.11 72.576 L1813.66 72.576 L1813.66 65.6895 Q1811.11 69.8214 1807.3 71.8063 Q1803.49 73.7508 1797.98 73.7508 Q1791.02 73.7508 1786.88 69.8619 Q1782.79 65.9325 1782.79 59.3701 Q1782.79 51.7138 1787.9 47.825 Q1793.04 43.9361 1803.21 43.9361 L1813.66 43.9361 L1813.66 43.2069 Q1813.66 38.0623 1810.26 35.2672 Q1806.89 32.4315 1800.78 32.4315 Q1796.89 32.4315 1793.2 33.3632 Q1789.52 34.295 1786.11 36.1584 L1786.11 29.2718 Q1790.21 27.692 1794.05 26.9223 Q1797.9 26.1121 1801.55 26.1121 Q1811.39 26.1121 1816.25 31.2163 Q1821.11 36.3204 1821.11 46.6907 Z" fill="#000000" fill-rule="nonzero" fill-opacity="1" /><path clip-path="url(#clip480)" d="M1869.12 28.9478 L1869.12 35.9153 Q1865.96 34.1734 1862.76 33.3227 Q1859.6 32.4315 1856.36 32.4315 Q1849.11 32.4315 1845.09 37.0496 Q1841.08 41.6271 1841.08 49.9314 Q1841.08 58.2358 1845.09 62.8538 Q1849.11 67.4314 1856.36 67.4314 Q1859.6 67.4314 1862.76 66.5807 Q1865.96 65.6895 1869.12 63.9476 L1869.12 70.8341 Q1866 72.2924 1862.64 73.0216 Q1859.31 73.7508 1855.55 73.7508 Q1845.3 73.7508 1839.26 67.3098 Q1833.23 60.8689 1833.23 49.9314 Q1833.23 38.832 1839.3 32.472 Q1845.42 26.1121 1856.03 26.1121 Q1859.48 26.1121 1862.76 26.8413 Q1866.04 27.5299 1869.12 28.9478 Z" fill="#000000" fill-rule="nonzero" fill-opacity="1" /><path clip-path="url(#clip480)" d="M1882.08 27.2059 L1889.53 27.2059 L1889.53 72.576 L1882.08 72.576 L1882.08 27.2059 M1882.08 9.54393 L1889.53 9.54393 L1889.53 18.9825 L1882.08 18.9825 L1882.08 9.54393 Z" fill="#000000" fill-rule="nonzero" fill-opacity="1" /><path clip-path="url(#clip480)" d="M1912.5 14.324 L1912.5 27.2059 L1927.85 27.2059 L1927.85 32.9987 L1912.5 32.9987 L1912.5 57.6282 Q1912.5 63.1779 1914 64.7578 Q1915.54 66.3376 1920.2 66.3376 L1927.85 66.3376 L1927.85 72.576 L1920.2 72.576 Q1911.57 72.576 1908.29 69.3758 Q1905.01 66.1351 1905.01 57.6282 L1905.01 32.9987 L1899.54 32.9987 L1899.54 27.2059 L1905.01 27.2059 L1905.01 14.324 L1912.5 14.324 Z" fill="#000000" fill-rule="nonzero" fill-opacity="1" /><path clip-path="url(#clip480)" d="M1956.54 76.7889 Q1953.38 84.8907 1950.38 87.3618 Q1947.38 89.8329 1942.36 89.8329 L1936.4 89.8329 L1936.4 83.5945 L1940.78 83.5945 Q1943.86 83.5945 1945.56 82.1361 Q1947.26 80.6778 1949.32 75.2496 L1950.66 71.8468 L1932.31 27.2059 L1940.21 27.2059 L1954.39 62.6918 L1968.57 27.2059 L1976.47 27.2059 L1956.54 76.7889 Z" fill="#000000" fill-rule="nonzero" fill-opacity="1" /><polyline clip-path="url(#clip482)" style="stroke:#009af9; stroke-linecap:round; stroke-linejoin:round; stroke-width:4; stroke-opacity:1; fill:none" points="303.094,170.765 319.111,265.553 335.127,336.705 351.143,398.829 367.159,455.026 383.175,506.771 399.191,554.929 415.207,600.073 431.223,642.608 447.24,682.839 463.256,720.999 479.272,757.275 495.288,791.82 511.304,824.761 527.32,856.204 543.336,886.24 559.353,914.948 575.369,942.396 591.385,968.643 607.401,993.743 623.417,1017.74 639.433,1040.69 655.449,1062.61 671.465,1083.54 687.482,1103.52 703.498,1122.57 719.514,1140.72 735.53,1157.99 751.546,1174.39 767.562,1189.96 783.578,1204.71 799.594,1218.65 815.611,1231.8 831.627,1244.17 847.643,1255.78 863.659,1266.63 879.675,1276.74 895.691,1286.11 911.707,1294.76 927.724,1302.68 943.74,1309.9 959.756,1316.41 975.772,1322.22 991.788,1327.34 1007.8,1331.77 1023.82,1335.51 1039.84,1338.56 1055.85,1340.93 1071.87,1342.63 1087.88,1343.64 1103.9,1343.98 1119.92,1343.64 1135.93,1342.63 1151.95,1340.93 1167.97,1338.56 1183.98,1335.51 1200,1331.77 1216.01,1327.34 1232.03,1322.22 1248.05,1316.41 1264.06,1309.9 1280.08,1302.68 1296.09,1294.76 1312.11,1286.11 1328.13,1276.74 1344.14,1266.63 1360.16,1255.78 1376.18,1244.17 1392.19,1231.8 1408.21,1218.65 1424.22,1204.71 1440.24,1189.96 1456.26,1174.39 1472.27,1157.99 1488.29,1140.72 1504.3,1122.57 1520.32,1103.52 1536.34,1083.54 1552.35,1062.61 1568.37,1040.69 1584.38,1017.74 1600.4,993.743 1616.42,968.643 1632.43,942.396 1648.45,914.948 1664.47,886.24 1680.48,856.204 1696.5,824.761 1712.51,791.82 1728.53,757.275 1744.55,720.999 1760.56,682.839 1776.58,642.608 1792.59,600.073 1808.61,554.929 1824.63,506.771 1840.64,455.026 1856.66,398.829 1872.68,336.705 1888.69,265.553 1904.71,170.765 "/>
<path clip-path="url(#clip480)" d="M863.484 280.702 L1344.32 280.702 L1344.32 177.022 L863.484 177.022  Z" fill="#ffffff" fill-rule="evenodd" fill-opacity="1"/>
<polyline clip-path="url(#clip480)" style="stroke:#000000; stroke-linecap:round; stroke-linejoin:round; stroke-width:4; stroke-opacity:1; fill:none" points="863.484,280.702 1344.32,280.702 1344.32,177.022 863.484,177.022 863.484,280.702 "/>
<polyline clip-path="url(#clip480)" style="stroke:#009af9; stroke-linecap:round; stroke-linejoin:round; stroke-width:4; stroke-opacity:1; fill:none" points="882.347,228.862 995.528,228.862 "/>
<path clip-path="url(#clip480)" d="M1019.07 229.637 L1019.07 242.299 L1026.57 242.299 Q1030.34 242.299 1032.15 240.748 Q1033.97 239.174 1033.97 235.957 Q1033.97 232.716 1032.15 231.188 Q1030.34 229.637 1026.57 229.637 L1019.07 229.637 M1019.07 215.424 L1019.07 225.841 L1025.99 225.841 Q1029.41 225.841 1031.08 224.568 Q1032.77 223.272 1032.77 220.633 Q1032.77 218.017 1031.08 216.721 Q1029.41 215.424 1025.99 215.424 L1019.07 215.424 M1014.39 211.582 L1026.34 211.582 Q1031.68 211.582 1034.58 213.804 Q1037.47 216.026 1037.47 220.123 Q1037.47 223.295 1035.99 225.17 Q1034.51 227.045 1031.64 227.508 Q1035.09 228.248 1036.98 230.609 Q1038.91 232.947 1038.91 236.466 Q1038.91 241.096 1035.76 243.619 Q1032.61 246.142 1026.8 246.142 L1014.39 246.142 L1014.39 211.582 Z" fill="#000000" fill-rule="nonzero" fill-opacity="1" /><path clip-path="url(#clip480)" d="M1066.8 212.716 L1066.8 217.276 Q1064.14 216.003 1061.78 215.378 Q1059.41 214.753 1057.22 214.753 Q1053.4 214.753 1051.31 216.235 Q1049.25 217.716 1049.25 220.448 Q1049.25 222.739 1050.62 223.92 Q1052.01 225.077 1055.85 225.795 L1058.67 226.373 Q1063.91 227.369 1066.38 229.892 Q1068.88 232.392 1068.88 236.605 Q1068.88 241.628 1065.5 244.221 Q1062.15 246.813 1055.64 246.813 Q1053.19 246.813 1050.41 246.258 Q1047.66 245.702 1044.69 244.614 L1044.69 239.799 Q1047.54 241.396 1050.27 242.207 Q1053 243.017 1055.64 243.017 Q1059.65 243.017 1061.82 241.443 Q1064 239.869 1064 236.952 Q1064 234.406 1062.42 232.971 Q1060.87 231.535 1057.31 230.818 L1054.46 230.262 Q1049.23 229.221 1046.89 226.998 Q1044.55 224.776 1044.55 220.818 Q1044.55 216.235 1047.77 213.596 Q1051.01 210.957 1056.68 210.957 Q1059.11 210.957 1061.64 211.397 Q1064.16 211.836 1066.8 212.716 Z" fill="#000000" fill-rule="nonzero" fill-opacity="1" /><path clip-path="url(#clip480)" d="M1102.05 214.244 L1102.05 219.174 Q1099.69 216.975 1097.01 215.887 Q1094.34 214.799 1091.34 214.799 Q1085.41 214.799 1082.26 218.434 Q1079.11 222.045 1079.11 228.897 Q1079.11 235.725 1082.26 239.359 Q1085.41 242.971 1091.34 242.971 Q1094.34 242.971 1097.01 241.883 Q1099.69 240.795 1102.05 238.596 L1102.05 243.48 Q1099.6 245.146 1096.84 245.98 Q1094.11 246.813 1091.06 246.813 Q1083.21 246.813 1078.7 242.021 Q1074.18 237.207 1074.18 228.897 Q1074.18 220.563 1078.7 215.772 Q1083.21 210.957 1091.06 210.957 Q1094.16 210.957 1096.89 211.79 Q1099.65 212.6 1102.05 214.244 Z" fill="#000000" fill-rule="nonzero" fill-opacity="1" /><path clip-path="url(#clip480)" d="M1150.22 214.244 L1150.22 219.174 Q1147.86 216.975 1145.18 215.887 Q1142.52 214.799 1139.51 214.799 Q1133.58 214.799 1130.43 218.434 Q1127.28 222.045 1127.28 228.897 Q1127.28 235.725 1130.43 239.359 Q1133.58 242.971 1139.51 242.971 Q1142.52 242.971 1145.18 241.883 Q1147.86 240.795 1150.22 238.596 L1150.22 243.48 Q1147.77 245.146 1145.02 245.98 Q1142.28 246.813 1139.23 246.813 Q1131.38 246.813 1126.87 242.021 Q1122.35 237.207 1122.35 228.897 Q1122.35 220.563 1126.87 215.772 Q1131.38 210.957 1139.23 210.957 Q1142.33 210.957 1145.06 211.79 Q1147.82 212.6 1150.22 214.244 Z" fill="#000000" fill-rule="nonzero" fill-opacity="1" /><path clip-path="url(#clip480)" d="M1169.04 233.109 Q1163.88 233.109 1161.89 234.29 Q1159.9 235.471 1159.9 238.318 Q1159.9 240.586 1161.38 241.929 Q1162.89 243.248 1165.46 243.248 Q1169 243.248 1171.13 240.748 Q1173.28 238.225 1173.28 234.059 L1173.28 233.109 L1169.04 233.109 M1177.54 231.35 L1177.54 246.142 L1173.28 246.142 L1173.28 242.207 Q1171.82 244.568 1169.65 245.702 Q1167.47 246.813 1164.32 246.813 Q1160.34 246.813 1157.98 244.591 Q1155.64 242.346 1155.64 238.596 Q1155.64 234.221 1158.56 231.998 Q1161.5 229.776 1167.31 229.776 L1173.28 229.776 L1173.28 229.359 Q1173.28 226.42 1171.34 224.822 Q1169.41 223.202 1165.92 223.202 Q1163.7 223.202 1161.59 223.735 Q1159.48 224.267 1157.54 225.332 L1157.54 221.397 Q1159.88 220.494 1162.08 220.054 Q1164.27 219.591 1166.36 219.591 Q1171.98 219.591 1174.76 222.508 Q1177.54 225.424 1177.54 231.35 Z" fill="#000000" fill-rule="nonzero" fill-opacity="1" /><path clip-path="url(#clip480)" d="M1190.43 242.253 L1190.43 256.003 L1186.15 256.003 L1186.15 220.216 L1190.43 220.216 L1190.43 224.151 Q1191.77 221.836 1193.81 220.725 Q1195.87 219.591 1198.72 219.591 Q1203.44 219.591 1206.38 223.341 Q1209.34 227.091 1209.34 233.202 Q1209.34 239.313 1206.38 243.063 Q1203.44 246.813 1198.72 246.813 Q1195.87 246.813 1193.81 245.702 Q1191.77 244.568 1190.43 242.253 M1204.92 233.202 Q1204.92 228.503 1202.98 225.841 Q1201.06 223.156 1197.68 223.156 Q1194.3 223.156 1192.35 225.841 Q1190.43 228.503 1190.43 233.202 Q1190.43 237.901 1192.35 240.586 Q1194.3 243.248 1197.68 243.248 Q1201.06 243.248 1202.98 240.586 Q1204.92 237.901 1204.92 233.202 Z" fill="#000000" fill-rule="nonzero" fill-opacity="1" /><path clip-path="url(#clip480)" d="M1228.19 233.109 Q1223.02 233.109 1221.03 234.29 Q1219.04 235.471 1219.04 238.318 Q1219.04 240.586 1220.52 241.929 Q1222.03 243.248 1224.6 243.248 Q1228.14 243.248 1230.27 240.748 Q1232.42 238.225 1232.42 234.059 L1232.42 233.109 L1228.19 233.109 M1236.68 231.35 L1236.68 246.142 L1232.42 246.142 L1232.42 242.207 Q1230.96 244.568 1228.79 245.702 Q1226.61 246.813 1223.46 246.813 Q1219.48 246.813 1217.12 244.591 Q1214.78 242.346 1214.78 238.596 Q1214.78 234.221 1217.7 231.998 Q1220.64 229.776 1226.45 229.776 L1232.42 229.776 L1232.42 229.359 Q1232.42 226.42 1230.48 224.822 Q1228.56 223.202 1225.06 223.202 Q1222.84 223.202 1220.73 223.735 Q1218.63 224.267 1216.68 225.332 L1216.68 221.397 Q1219.02 220.494 1221.22 220.054 Q1223.42 219.591 1225.5 219.591 Q1231.13 219.591 1233.9 222.508 Q1236.68 225.424 1236.68 231.35 Z" fill="#000000" fill-rule="nonzero" fill-opacity="1" /><path clip-path="url(#clip480)" d="M1264.11 221.211 L1264.11 225.193 Q1262.31 224.197 1260.48 223.711 Q1258.67 223.202 1256.82 223.202 Q1252.68 223.202 1250.39 225.841 Q1248.09 228.457 1248.09 233.202 Q1248.09 237.947 1250.39 240.586 Q1252.68 243.202 1256.82 243.202 Q1258.67 243.202 1260.48 242.716 Q1262.31 242.207 1264.11 241.211 L1264.11 245.146 Q1262.33 245.98 1260.41 246.396 Q1258.51 246.813 1256.36 246.813 Q1250.5 246.813 1247.05 243.133 Q1243.6 239.452 1243.6 233.202 Q1243.6 226.86 1247.08 223.225 Q1250.57 219.591 1256.64 219.591 Q1258.6 219.591 1260.48 220.008 Q1262.35 220.401 1264.11 221.211 Z" fill="#000000" fill-rule="nonzero" fill-opacity="1" /><path clip-path="url(#clip480)" d="M1271.52 220.216 L1275.78 220.216 L1275.78 246.142 L1271.52 246.142 L1271.52 220.216 M1271.52 210.123 L1275.78 210.123 L1275.78 215.517 L1271.52 215.517 L1271.52 210.123 Z" fill="#000000" fill-rule="nonzero" fill-opacity="1" /><path clip-path="url(#clip480)" d="M1288.9 212.855 L1288.9 220.216 L1297.68 220.216 L1297.68 223.526 L1288.9 223.526 L1288.9 237.6 Q1288.9 240.771 1289.76 241.674 Q1290.64 242.577 1293.3 242.577 L1297.68 242.577 L1297.68 246.142 L1293.3 246.142 Q1288.37 246.142 1286.5 244.313 Q1284.62 242.461 1284.62 237.6 L1284.62 223.526 L1281.5 223.526 L1281.5 220.216 L1284.62 220.216 L1284.62 212.855 L1288.9 212.855 Z" fill="#000000" fill-rule="nonzero" fill-opacity="1" /><path clip-path="url(#clip480)" d="M1314.07 248.549 Q1312.26 253.179 1310.55 254.591 Q1308.83 256.003 1305.96 256.003 L1302.56 256.003 L1302.56 252.438 L1305.06 252.438 Q1306.82 252.438 1307.79 251.605 Q1308.76 250.771 1309.95 247.67 L1310.71 245.725 L1300.22 220.216 L1304.74 220.216 L1312.84 240.494 L1320.94 220.216 L1325.45 220.216 L1314.07 248.549 Z" fill="#000000" fill-rule="nonzero" fill-opacity="1" /></svg>
