<?xml version="1.0" encoding="utf-8"?>
<svg xmlns="http://www.w3.org/2000/svg" xmlns:xlink="http://www.w3.org/1999/xlink" width="200" height="200" viewBox="0 0 800 800">
<defs>
  <clipPath id="clip390">
    <rect x="0" y="0" width="800" height="800"/>
  </clipPath>
</defs>
<path clip-path="url(#clip390)" d="M0 800 L800 800 L800 0 L0 0  Z" fill="#ffffff" fill-rule="evenodd" fill-opacity="1"/>
<defs>
  <clipPath id="clip391">
    <rect x="160" y="79" width="561" height="561"/>
  </clipPath>
</defs>
<path clip-path="url(#clip390)" d="M170.274 677.168 L752.756 677.168 L752.756 153.712 L170.274 153.712  Z" fill="#ffffff" fill-rule="evenodd" fill-opacity="1"/>
<defs>
  <clipPath id="clip392">
    <rect x="170" y="153" width="583" height="524"/>
  </clipPath>
</defs>
<path clip-path="url(#clip390)" d="M392.994 43.6931 L392.994 65.8515 L406.119 65.8515 Q412.722 65.8515 415.882 63.1374 Q419.082 60.3828 419.082 54.752 Q419.082 49.0808 415.882 46.4072 Q412.722 43.6931 406.119 43.6931 L392.994 43.6931 M392.994 18.8205 L392.994 37.0496 L405.106 37.0496 Q411.101 37.0496 414.018 34.8216 Q416.975 32.5531 416.975 27.935 Q416.975 23.3575 414.018 21.089 Q411.101 18.8205 405.106 18.8205 L392.994 18.8205 M384.811 12.096 L405.714 12.096 Q415.071 12.096 420.135 15.9849 Q425.199 19.8737 425.199 27.0438 Q425.199 32.5936 422.606 35.8748 Q420.013 39.156 414.99 39.9662 Q421.026 41.2625 424.348 45.3944 Q427.71 49.4858 427.71 55.6432 Q427.71 63.745 422.201 68.1605 Q416.692 72.576 406.524 72.576 L384.811 72.576 L384.811 12.096 Z" fill="#000000" fill-rule="nonzero" fill-opacity="1" /><path clip-path="url(#clip390)" d="M476.524 14.0809 L476.524 22.0612 Q471.865 19.8332 467.733 18.7395 Q463.601 17.6457 459.753 17.6457 Q453.069 17.6457 449.423 20.2383 Q445.818 22.8309 445.818 27.611 Q445.818 31.6214 448.208 33.6873 Q450.638 35.7128 457.363 36.9686 L462.305 37.9813 Q471.46 39.7232 475.794 44.1387 Q480.169 48.5136 480.169 55.8863 Q480.169 64.6767 474.255 69.2137 Q468.381 73.7508 456.998 73.7508 Q452.704 73.7508 447.843 72.7785 Q443.023 71.8063 437.837 69.9024 L437.837 61.4765 Q442.82 64.2716 447.6 65.6895 Q452.38 67.1073 456.998 67.1073 Q464.006 67.1073 467.814 64.3527 Q471.622 61.598 471.622 56.4939 Q471.622 52.0379 468.867 49.5264 Q466.153 47.0148 459.915 45.759 L454.932 44.7868 Q445.777 42.9639 441.686 39.075 Q437.594 35.1862 437.594 28.2591 Q437.594 20.2383 443.225 15.6203 Q448.896 11.0023 458.821 11.0023 Q463.075 11.0023 467.49 11.7719 Q471.906 12.5416 476.524 14.0809 Z" fill="#000000" fill-rule="nonzero" fill-opacity="1" /><path clip-path="url(#clip390)" d="M538.219 16.7545 L538.219 25.383 Q534.087 21.5346 529.388 19.6307 Q524.729 17.7268 519.463 17.7268 Q509.093 17.7268 503.584 24.0867 Q498.074 30.4061 498.074 42.3968 Q498.074 54.3469 503.584 60.7069 Q509.093 67.0263 519.463 67.0263 Q524.729 67.0263 529.388 65.1223 Q534.087 63.2184 538.219 59.3701 L538.219 67.9175 Q533.925 70.8341 529.104 72.2924 Q524.324 73.7508 518.977 73.7508 Q505.244 73.7508 497.345 65.3654 Q489.446 56.9395 489.446 42.3968 Q489.446 27.8135 497.345 19.4281 Q505.244 11.0023 518.977 11.0023 Q524.405 11.0023 529.185 12.4606 Q534.006 13.8784 538.219 16.7545 Z" fill="#000000" fill-rule="nonzero" fill-opacity="1" /><polyline clip-path="url(#clip392)" style="stroke:#0000ff; stroke-linecap:round; stroke-linejoin:round; stroke-width:4; stroke-opacity:1; fill:none" points="186.759,168.527 736.271,662.353 "/>
<polyline clip-path="url(#clip392)" style="stroke:#0000ff; stroke-linecap:round; stroke-linejoin:round; stroke-width:4; stroke-opacity:1; fill:none" points="731.356,649.869 736.271,662.353 723.335,658.795 "/>
<polyline clip-path="url(#clip392)" style="stroke:#0000ff; stroke-linecap:round; stroke-linejoin:round; stroke-width:4; stroke-opacity:1; fill:none" points="736.271,662.353 186.759,168.527 "/>
<polyline clip-path="url(#clip392)" style="stroke:#0000ff; stroke-linecap:round; stroke-linejoin:round; stroke-width:4; stroke-opacity:1; fill:none" points="186.759,662.353 736.271,168.527 "/>
<polyline clip-path="url(#clip392)" style="stroke:#0000ff; stroke-linecap:round; stroke-linejoin:round; stroke-width:4; stroke-opacity:1; fill:none" points="723.335,172.085 736.271,168.527 731.356,181.011 "/>
<polyline clip-path="url(#clip392)" style="stroke:#0000ff; stroke-linecap:round; stroke-linejoin:round; stroke-width:4; stroke-opacity:1; fill:none" points="736.271,168.527 186.759,662.353 "/>
<polyline clip-path="url(#clip392)" style="stroke:#000000; stroke-linecap:round; stroke-linejoin:round; stroke-width:4; stroke-opacity:1; fill:none" points="186.759,168.527 736.271,168.527 "/>
<polyline clip-path="url(#clip392)" style="stroke:#000000; stroke-linecap:round; stroke-linejoin:round; stroke-width:4; stroke-opacity:1; fill:none" points="186.759,662.353 736.271,662.353 "/>
<path clip-path="url(#clip390)" d="M159.284 118.983 Q152.964 118.983 149.764 125.222 Q146.604 131.42 146.604 143.896 Q146.604 156.333 149.764 162.571 Q152.964 168.769 159.284 168.769 Q165.644 168.769 168.803 162.571 Q172.004 156.333 172.004 143.896 Q172.004 131.42 168.803 125.222 Q165.644 118.983 159.284 118.983 M159.284 112.502 Q169.452 112.502 174.799 120.563 Q180.186 128.584 180.186 143.896 Q180.186 159.168 174.799 167.23 Q169.452 175.25 159.284 175.25 Q149.116 175.25 143.728 167.23 Q138.381 159.168 138.381 143.896 Q138.381 128.584 143.728 120.563 Q149.116 112.502 159.284 112.502 Z" fill="#000000" fill-rule="nonzero" fill-opacity="1" /><path clip-path="url(#clip390)" d="M763.746 118.983 Q757.427 118.983 754.227 125.222 Q751.067 131.42 751.067 143.896 Q751.067 156.333 754.227 162.571 Q757.427 168.769 763.746 168.769 Q770.106 168.769 773.266 162.571 Q776.466 156.333 776.466 143.896 Q776.466 131.42 773.266 125.222 Q770.106 118.983 763.746 118.983 M763.746 112.502 Q773.914 112.502 779.261 120.563 Q784.649 128.584 784.649 143.896 Q784.649 159.168 779.261 167.23 Q773.914 175.25 763.746 175.25 Q753.578 175.25 748.191 167.23 Q742.843 159.168 742.843 143.896 Q742.843 128.584 748.191 120.563 Q753.578 112.502 763.746 112.502 Z" fill="#000000" fill-rule="nonzero" fill-opacity="1" /><path clip-path="url(#clip390)" d="M142.452 710.398 L155.82 710.398 L155.82 664.258 L141.278 667.175 L141.278 659.721 L155.739 656.804 L163.922 656.804 L163.922 710.398 L177.29 710.398 L177.29 717.284 L142.452 717.284 L142.452 710.398 Z" fill="#000000" fill-rule="nonzero" fill-opacity="1" /><path clip-path="url(#clip390)" d="M746.915 710.398 L760.283 710.398 L760.283 664.258 L745.74 667.175 L745.74 659.721 L760.202 656.804 L768.384 656.804 L768.384 710.398 L781.752 710.398 L781.752 717.284 L746.915 717.284 L746.915 710.398 Z" fill="#000000" fill-rule="nonzero" fill-opacity="1" /><path clip-path="url(#clip390)" d="M421.055 400.122 Q421.055 400.983 420.318 401.68 Q419.621 402.377 418.76 402.377 Q418.268 402.377 417.08 401.557 Q413.677 399.179 409.374 399.179 Q405.521 399.179 401.954 400.122 Q398.388 401.065 395.97 402.991 Q393.593 404.877 393.593 407.336 Q393.593 410.41 396.954 412.214 Q400.438 410.615 404.742 410.615 Q406.135 410.615 407.078 410.697 Q408.062 410.779 409.005 410.984 Q409.947 411.189 410.398 411.681 Q410.89 412.132 410.89 412.87 Q410.89 415.493 404.086 415.493 Q399.659 415.493 396.872 414.304 Q393.306 416.067 391.338 418.895 Q389.371 421.724 389.371 424.142 Q389.371 426.232 390.518 427.749 Q391.707 429.266 393.634 430.003 Q395.601 430.741 397.528 431.069 Q399.495 431.356 401.668 431.356 Q405.234 431.356 407.734 430.905 Q410.275 430.413 411.669 429.511 Q413.104 428.61 413.677 427.995 Q414.292 427.339 414.907 426.314 Q415.276 425.74 415.768 425.74 Q416.137 425.74 416.383 425.986 Q416.67 426.191 416.67 426.56 Q416.67 427.011 416.096 427.954 Q415.563 428.897 414.251 430.167 Q412.981 431.397 411.218 432.545 Q409.496 433.651 406.75 434.43 Q404.004 435.209 400.889 435.209 Q394.535 435.209 390.846 432.094 Q387.198 428.979 387.198 424.634 Q387.198 421.601 389.207 418.485 Q391.256 415.329 394.863 413.321 Q391.502 410.82 391.502 407.336 Q391.502 404.221 394.126 401.434 Q396.79 398.647 401.094 397.007 Q405.439 395.326 410.193 395.326 Q412.858 395.326 415.481 396.228 Q418.104 397.089 419.58 398.196 Q421.055 399.302 421.055 400.122 M408.718 412.952 Q406.914 412.46 404.742 412.46 Q401.791 412.46 399.618 413.198 Q401.381 413.649 404.086 413.649 Q406.34 413.649 406.996 413.526 Q407.693 413.403 408.718 412.952 Z" fill="#000000" fill-rule="nonzero" fill-opacity="1" /><path clip-path="url(#clip390)" d="M365.736 690.593 L365.736 687.969 Q375.819 687.969 381.025 682.6 Q382.46 682.6 382.706 682.928 Q382.952 683.256 382.952 684.772 L382.952 731.869 Q382.952 734.369 384.181 735.148 Q385.411 735.927 390.78 735.927 L393.445 735.927 L393.445 738.509 Q390.494 738.263 379.836 738.263 Q369.179 738.263 366.269 738.509 L366.269 735.927 L368.933 735.927 Q374.221 735.927 375.491 735.189 Q376.762 734.41 376.762 731.869 L376.762 688.379 Q372.376 690.593 365.736 690.593 Z" fill="#000000" fill-rule="nonzero" fill-opacity="1" /><path clip-path="url(#clip390)" d="M486.017 716.334 Q486.509 716.826 486.509 717.523 Q486.509 718.219 486.017 718.711 Q485.525 719.203 484.828 719.203 L432.28 719.203 Q431.583 719.203 431.091 718.711 Q430.599 718.219 430.599 717.523 Q430.599 716.826 431.091 716.334 Q431.583 715.842 432.28 715.842 L484.828 715.842 Q485.525 715.842 486.017 716.334 Z" fill="#000000" fill-rule="nonzero" fill-opacity="1" /><path clip-path="url(#clip390)" d="M552.42 705.267 Q552.42 706.128 551.682 706.824 Q550.985 707.521 550.125 707.521 Q549.633 707.521 548.444 706.701 Q545.042 704.324 540.738 704.324 Q536.885 704.324 533.319 705.267 Q529.753 706.21 527.335 708.136 Q524.957 710.022 524.957 712.481 Q524.957 715.555 528.318 717.359 Q531.802 715.76 536.106 715.76 Q537.5 715.76 538.443 715.842 Q539.426 715.924 540.369 716.129 Q541.312 716.334 541.763 716.826 Q542.255 717.277 542.255 718.015 Q542.255 720.638 535.45 720.638 Q531.024 720.638 528.236 719.449 Q524.67 721.212 522.703 724.04 Q520.735 726.868 520.735 729.287 Q520.735 731.377 521.883 732.894 Q523.072 734.41 524.998 735.148 Q526.966 735.886 528.892 736.214 Q530.86 736.501 533.032 736.501 Q536.598 736.501 539.098 736.05 Q541.64 735.558 543.033 734.656 Q544.468 733.754 545.042 733.14 Q545.657 732.484 546.272 731.459 Q546.641 730.885 547.132 730.885 Q547.501 730.885 547.747 731.131 Q548.034 731.336 548.034 731.705 Q548.034 732.156 547.46 733.099 Q546.927 734.041 545.616 735.312 Q544.345 736.542 542.583 737.689 Q540.861 738.796 538.115 739.575 Q535.368 740.354 532.253 740.354 Q525.9 740.354 522.211 737.238 Q518.563 734.123 518.563 729.778 Q518.563 726.745 520.571 723.63 Q522.621 720.474 526.228 718.465 Q522.867 715.965 522.867 712.481 Q522.867 709.366 525.49 706.578 Q528.154 703.791 532.458 702.152 Q536.803 700.471 541.558 700.471 Q544.222 700.471 546.845 701.373 Q549.469 702.234 550.944 703.34 Q552.42 704.447 552.42 705.267 M540.082 718.096 Q538.279 717.605 536.106 717.605 Q533.155 717.605 530.983 718.342 Q532.745 718.793 535.45 718.793 Q537.705 718.793 538.361 718.67 Q539.057 718.547 540.082 718.096 Z" fill="#000000" fill-rule="nonzero" fill-opacity="1" /><path clip-path="url(#clip390)" d="M365.736 98.0013 L365.736 95.378 Q375.819 95.378 381.025 90.0084 Q382.46 90.0084 382.706 90.3363 Q382.952 90.6642 382.952 92.1808 L382.952 139.277 Q382.952 141.778 384.181 142.557 Q385.411 143.335 390.78 143.335 L393.445 143.335 L393.445 145.918 Q390.494 145.672 379.836 145.672 Q369.179 145.672 366.269 145.918 L366.269 143.335 L368.933 143.335 Q374.221 143.335 375.491 142.598 Q376.762 141.819 376.762 139.277 L376.762 95.7878 Q372.376 98.0013 365.736 98.0013 Z" fill="#000000" fill-rule="nonzero" fill-opacity="1" /><path clip-path="url(#clip390)" d="M486.017 123.743 Q486.509 124.234 486.509 124.931 Q486.509 125.628 486.017 126.12 Q485.525 126.612 484.828 126.612 L432.28 126.612 Q431.583 126.612 431.091 126.12 Q430.599 125.628 430.599 124.931 Q430.599 124.234 431.091 123.743 Q431.583 123.251 432.28 123.251 L484.828 123.251 Q485.525 123.251 486.017 123.743 Z" fill="#000000" fill-rule="nonzero" fill-opacity="1" /><path clip-path="url(#clip390)" d="M552.42 112.675 Q552.42 113.536 551.682 114.233 Q550.985 114.93 550.125 114.93 Q549.633 114.93 548.444 114.11 Q545.042 111.733 540.738 111.733 Q536.885 111.733 533.319 112.675 Q529.753 113.618 527.335 115.545 Q524.957 117.43 524.957 119.89 Q524.957 122.964 528.318 124.767 Q531.802 123.169 536.106 123.169 Q537.5 123.169 538.443 123.251 Q539.426 123.333 540.369 123.538 Q541.312 123.743 541.763 124.234 Q542.255 124.685 542.255 125.423 Q542.255 128.046 535.45 128.046 Q531.024 128.046 528.236 126.858 Q524.67 128.62 522.703 131.449 Q520.735 134.277 520.735 136.695 Q520.735 138.786 521.883 140.302 Q523.072 141.819 524.998 142.557 Q526.966 143.294 528.892 143.622 Q530.86 143.909 533.032 143.909 Q536.598 143.909 539.098 143.458 Q541.64 142.967 543.033 142.065 Q544.468 141.163 545.042 140.548 Q545.657 139.892 546.272 138.868 Q546.641 138.294 547.132 138.294 Q547.501 138.294 547.747 138.54 Q548.034 138.745 548.034 139.114 Q548.034 139.564 547.46 140.507 Q546.927 141.45 545.616 142.721 Q544.345 143.95 542.583 145.098 Q540.861 146.205 538.115 146.983 Q535.368 147.762 532.253 147.762 Q525.9 147.762 522.211 144.647 Q518.563 141.532 518.563 137.187 Q518.563 134.154 520.571 131.039 Q522.621 127.882 526.228 125.874 Q522.867 123.374 522.867 119.89 Q522.867 116.774 525.49 113.987 Q528.154 111.2 532.458 109.56 Q536.803 107.88 541.558 107.88 Q544.222 107.88 546.845 108.781 Q549.469 109.642 550.944 110.749 Q552.42 111.856 552.42 112.675 M540.082 125.505 Q538.279 125.013 536.106 125.013 Q533.155 125.013 530.983 125.751 Q532.745 126.202 535.45 126.202 Q537.705 126.202 538.361 126.079 Q539.057 125.956 540.082 125.505 Z" fill="#000000" fill-rule="nonzero" fill-opacity="1" /></svg>
